<?xml version="1.0" encoding="utf-8"?>
<!-- Generator: Adobe Illustrator 16.0.3, SVG Export Plug-In . SVG Version: 6.00 Build 0)  -->
<!DOCTYPE svg PUBLIC "-//W3C//DTD SVG 1.1//EN" "http://www.w3.org/Graphics/SVG/1.1/DTD/svg11.dtd">
<svg version="1.1"
	 id="Capa_1" xmlns:dc="http://purl.org/dc/elements/1.1/" xmlns:cc="http://creativecommons.org/ns#" xmlns:rdf="http://www.w3.org/1999/02/22-rdf-syntax-ns#" xmlns:svg="http://www.w3.org/2000/svg" xmlns:sodipodi="http://sodipodi.sourceforge.net/DTD/sodipodi-0.dtd" xmlns:inkscape="http://www.inkscape.org/namespaces/inkscape" inkscape:version="0.48.2 r9819" sodipodi:docname="star.svg"
	 xmlns="http://www.w3.org/2000/svg" xmlns:xlink="http://www.w3.org/1999/xlink" x="0px" y="0px" width="300px" height="150px"
	 viewBox="0 -25 300 150" enable-background="new 0 -25 300 150" xml:space="preserve">
<sodipodi:namedview  id="namedview9" bordercolor="#666666" pagecolor="#ffffff" borderopacity="1" objecttolerance="10" gridtolerance="10" guidetolerance="10" showgrid="false" inkscape:zoom="2.36" inkscape:cx="50" inkscape:cy="50" inkscape:window-width="1440" inkscape:window-height="838" inkscape:window-x="-8" inkscape:window-y="-8" inkscape:window-maximized="1" inkscape:current-layer="Capa_1" inkscape:pageopacity="0" inkscape:pageshadow="2">
	</sodipodi:namedview>
<g id="g3" transform="matrix(0.9279661,0,0,0.9279661,2.3305085,5.0847458)">
	<path id="path5" inkscape:connector-curvature="0" inkscape:export-xdpi="90" inkscape:export-ydpi="90" d="M159.131,113.059
		c-20.422,0-37.036-16.615-37.036-37.039c0-20.42,16.614-37.034,37.036-37.034c20.423,0,37.038,16.614,37.038,37.034
		C196.17,96.445,179.555,113.059,159.131,113.059z M159.131,45.72c-16.708,0-30.302,13.593-30.302,30.3
		c0,16.712,13.593,30.306,30.302,30.306c16.711,0,30.305-13.596,30.305-30.306C189.436,59.313,175.84,45.72,159.131,45.72
		L159.131,45.72z"/>
	<path id="path7" sodipodi:nodetypes="cccccccccccccccccccccc" inkscape:connector-curvature="0" d="M143.666,97.091l2.954-17.219
		l-12.512-12.199l17.291-2.513l7.732-15.669l7.735,15.669l17.295,2.513l-12.517,12.199l2.957,17.219l-15.47-8.131L143.666,97.091z"
		/>
</g>
<text transform="matrix(1 0 0 1 0.4775 37.7754)" display="none" enable-background="new    " font-family="'ArialMT'" font-size="64.6002">Harrisburg</text>
<g enable-background="new    ">
	<path d="M5.65,37.775V-8.467h6.12v18.989h24.036V-8.467h6.12v46.242h-6.12V15.979H11.77v21.796H5.65z"/>
	<path d="M73.248,33.643c-2.103,1.788-4.127,3.049-6.072,3.785c-1.945,0.736-4.032,1.104-6.261,1.104
		c-3.68,0-6.509-0.899-8.485-2.697c-1.977-1.798-2.965-4.095-2.965-6.892c0-1.64,0.374-3.139,1.12-4.495
		c0.746-1.356,1.724-2.444,2.934-3.265c1.209-0.82,2.57-1.44,4.084-1.861c1.114-0.294,2.796-0.578,5.047-0.852
		c4.584-0.547,7.959-1.199,10.125-1.956c0.021-0.777,0.032-1.272,0.032-1.482c0-2.313-0.537-3.943-1.609-4.889
		C69.746,8.861,67.59,8.22,64.731,8.22c-2.671,0-4.642,0.468-5.915,1.403c-1.272,0.936-2.213,2.592-2.823,4.968l-5.552-0.757
		c0.505-2.376,1.335-4.294,2.492-5.756c1.156-1.461,2.828-2.586,5.016-3.375c2.187-0.789,4.721-1.183,7.602-1.183
		c2.859,0,5.183,0.337,6.971,1.009c1.787,0.673,3.102,1.52,3.943,2.54c0.841,1.02,1.43,2.308,1.767,3.864
		c0.189,0.968,0.284,2.713,0.284,5.236v7.57c0,5.278,0.121,8.617,0.363,10.015c0.242,1.399,0.72,2.74,1.435,4.022h-5.93
		C73.794,36.598,73.416,35.22,73.248,33.643z M72.774,20.963c-2.061,0.841-5.152,1.557-9.273,2.145
		c-2.334,0.336-3.985,0.715-4.953,1.136c-0.967,0.421-1.714,1.036-2.239,1.845c-0.526,0.81-0.789,1.708-0.789,2.697
		c0,1.514,0.573,2.776,1.719,3.785s2.823,1.514,5.031,1.514c2.187,0,4.132-0.478,5.835-1.436c1.704-0.957,2.954-2.266,3.754-3.927
		c0.609-1.283,0.915-3.175,0.915-5.678V20.963z"/>
	<path d="M87.252,37.775V4.277h5.11v5.078c1.304-2.376,2.508-3.943,3.612-4.7c1.104-0.757,2.318-1.136,3.643-1.136
		c1.914,0,3.859,0.61,5.835,1.83l-1.956,5.268c-1.388-0.82-2.776-1.23-4.164-1.23c-1.241,0-2.355,0.374-3.344,1.12
		c-0.989,0.747-1.693,1.782-2.113,3.107c-0.631,2.019-0.946,4.227-0.946,6.624v17.538H87.252z"/>
	<path d="M108.765,37.775V4.277h5.11v5.078c1.304-2.376,2.508-3.943,3.612-4.7c1.104-0.757,2.318-1.136,3.643-1.136
		c1.914,0,3.859,0.61,5.835,1.83l-1.956,5.268c-1.388-0.82-2.776-1.23-4.164-1.23c-1.241,0-2.355,0.374-3.344,1.12
		c-0.989,0.747-1.693,1.782-2.113,3.107c-0.631,2.019-0.946,4.227-0.946,6.624v17.538H108.765z"/>
	<path d="M130.372-1.938v-6.529h5.678v6.529H130.372z M130.372,37.775V4.277h5.678v33.499H130.372z"/>
	<path d="M142.421,27.776l5.615-0.883c0.315,2.25,1.193,3.975,2.634,5.173c1.439,1.199,3.453,1.798,6.041,1.798
		c2.607,0,4.541-0.531,5.803-1.593c1.262-1.062,1.893-2.308,1.893-3.738c0-1.282-0.557-2.292-1.672-3.028
		c-0.777-0.505-2.713-1.146-5.803-1.924c-4.164-1.051-7.05-1.96-8.659-2.729c-1.608-0.768-2.829-1.83-3.659-3.186
		c-0.831-1.356-1.246-2.854-1.246-4.495c0-1.493,0.341-2.875,1.025-4.148c0.683-1.272,1.614-2.329,2.792-3.17
		c0.883-0.652,2.087-1.204,3.612-1.656c1.524-0.452,3.159-0.678,4.905-0.678c2.629,0,4.936,0.378,6.924,1.136
		c1.986,0.757,3.453,1.782,4.4,3.075c0.945,1.293,1.598,3.023,1.955,5.189l-5.551,0.757c-0.254-1.724-0.984-3.07-2.193-4.037
		s-2.918-1.451-5.125-1.451c-2.607,0-4.469,0.431-5.584,1.293c-1.114,0.862-1.671,1.872-1.671,3.028
		c0,0.736,0.231,1.399,0.694,1.987c0.462,0.61,1.188,1.115,2.177,1.514c0.568,0.21,2.24,0.694,5.016,1.451
		c4.016,1.073,6.818,1.951,8.406,2.634c1.588,0.684,2.834,1.677,3.738,2.98c0.902,1.304,1.355,2.923,1.355,4.858
		c0,1.893-0.553,3.675-1.656,5.346c-1.104,1.672-2.697,2.965-4.779,3.88c-2.08,0.915-4.436,1.372-7.064,1.372
		c-4.354,0-7.671-0.904-9.952-2.712C144.508,34.011,143.052,31.33,142.421,27.776z"/>
	<path d="M182.229,37.775h-5.268V-8.467h5.678V8.03c2.397-3.007,5.457-4.511,9.18-4.511c2.061,0,4.011,0.416,5.851,1.246
		c1.84,0.831,3.354,1.998,4.542,3.501c1.188,1.503,2.119,3.317,2.792,5.441c0.673,2.124,1.01,4.396,1.01,6.813
		c0,5.741-1.42,10.178-4.259,13.311c-2.839,3.134-6.245,4.7-10.22,4.7c-3.954,0-7.056-1.65-9.306-4.952V37.775z M182.166,20.773
		c0,4.017,0.546,6.919,1.64,8.706c1.787,2.923,4.206,4.385,7.255,4.385c2.481,0,4.626-1.078,6.436-3.233
		c1.808-2.155,2.712-5.367,2.712-9.636c0-4.374-0.867-7.602-2.602-9.684c-1.735-2.082-3.833-3.123-6.293-3.123
		c-2.481,0-4.627,1.078-6.435,3.233C183.069,13.577,182.166,16.694,182.166,20.773z"/>
	<path d="M234.874,37.775v-4.921c-2.607,3.785-6.15,5.678-10.63,5.678c-1.977,0-3.822-0.378-5.535-1.135
		c-1.715-0.757-2.986-1.708-3.817-2.855c-0.831-1.146-1.414-2.549-1.75-4.211c-0.232-1.114-0.348-2.88-0.348-5.299V4.277h5.678
		v18.579c0,2.965,0.115,4.963,0.348,5.993c0.357,1.494,1.114,2.666,2.271,3.517s2.587,1.277,4.29,1.277s3.301-0.436,4.795-1.309
		c1.492-0.872,2.549-2.061,3.17-3.564c0.62-1.503,0.931-3.685,0.931-6.545V4.277h5.678v33.499H234.874z"/>
	<path d="M248.784,37.775V4.277h5.11v5.078c1.303-2.376,2.507-3.943,3.611-4.7c1.104-0.757,2.318-1.136,3.644-1.136
		c1.913,0,3.858,0.61,5.835,1.83l-1.956,5.268c-1.388-0.82-2.775-1.23-4.163-1.23c-1.241,0-2.355,0.374-3.344,1.12
		c-0.988,0.747-1.693,1.782-2.113,3.107c-0.631,2.019-0.946,4.227-0.946,6.624v17.538H248.784z"/>
	<path d="M269.319,40.551l5.52,0.82c0.231,1.704,0.872,2.944,1.924,3.722c1.409,1.051,3.333,1.577,5.772,1.577
		c2.629,0,4.658-0.526,6.088-1.577c1.43-1.052,2.397-2.523,2.902-4.416c0.294-1.157,0.431-3.585,0.41-7.286
		c-2.481,2.923-5.573,4.384-9.273,4.384c-4.605,0-8.17-1.661-10.693-4.984c-2.523-3.322-3.785-7.307-3.785-11.955
		c0-3.196,0.578-6.146,1.734-8.848c1.156-2.702,2.834-4.789,5.031-6.261c2.197-1.472,4.779-2.208,7.744-2.208
		c3.953,0,7.212,1.599,9.778,4.794V4.277h5.236v28.957c0,5.215-0.531,8.911-1.593,11.087c-1.063,2.176-2.745,3.896-5.047,5.157
		c-2.303,1.262-5.137,1.892-8.501,1.892c-3.996,0-7.224-0.898-9.684-2.697C270.423,46.875,269.234,44.168,269.319,40.551z
		 M274.019,20.427c0,4.396,0.873,7.602,2.618,9.621s3.933,3.028,6.562,3.028c2.606,0,4.794-1.004,6.561-3.013
		c1.767-2.008,2.649-5.157,2.649-9.447c0-4.101-0.909-7.191-2.729-9.273c-1.818-2.082-4.011-3.123-6.576-3.123
		c-2.523,0-4.669,1.025-6.435,3.075C274.902,13.345,274.019,16.389,274.019,20.427z"/>
</g>
</svg>
