<svg width="100%" height="100%" preserveAspectRatio="xMidYMax" viewBox="2.682664 439.717923 49.914144 29.355176">
<g transform="scale(1.0,-1.0) translate(0,-908.791022)">
<g id="Unknown_Area_Type_st42_d00_e00" style="fill:none;stroke:rgb(1,0,0);stroke-width:0.000000;stroke-linecap:round">
	<path d="M10.562061 466.06507L10.569095 466.06471 10.634936 466.06130 11.040991 466.04043 11.318182 466.02632 11.689477 466.00243 11.689400 466.00315 11.816242 465.99537 11.816242 465.99537 12.301532 465.96581 12.408654 465.95856 12.636028 465.94526 12.797472 465.93586 12.955059 465.92672 13.604995 465.89517 14.499538 465.85272 14.800325 465.83871 15.382952 465.81713 15.383255 465.81712 15.390536 465.81685 15.476700 465.81245 15.791238 465.79646 16.362196 465.76781 16.362196 465.76781 16.435018 465.76396 16.950611 465.73696 17.009845 465.73388 17.189343 465.72245 17.541340 465.70015 17.883043 465.67867 17.906347 465.67722 18.690921 465.64673 18.942159 465.63715 19.229582 465.62906 19.833966 465.61243 19.833966 465.61243 19.833966 465.61243 19.833966 465.61243 20.035877 465.60699 20.211268 465.60231 20.324719 465.59730 20.418312 465.59318 20.726665 465.57971 21.318781 465.55421 22.251644 465.51505 22.282893 465.51376 22.478338 465.50572 22.601004 465.50070 22.601004 465.50070 22.906666 465.48397 22.935003 465.48328 22.935003 465.48328 23.442039 465.47098 23.751198 465.46366 23.967312 465.45862 24.120551 465.45509 24.416528 465.43994 24.663852 465.42737 24.895039 465.41570 24.896803 465.41538 25.084954 465.40395 25.165529 465.39907 25.173666 465.39857 25.461500 465.38800 25.969846 465.36961 25.969846 465.36961 25.969846 465.36961 26.432751 465.35319 26.544244 465.34928 26.620713 465.34701 27.224362 465.32996 27.224362 465.32996 27.411912 465.32528 28.385153 465.30181 29.250955 465.28204 29.435654 465.27622 29.491171 465.27448 29.794361 465.26505 30.718058 465.23712 30.811322 465.23437 31.024413 465.22812 31.616864 465.21110 32.262751 465.19311 32.403202 465.18927 32.486717 465.18916 32.581870 465.18904 32.908856 465.18874 32.998439 465.18742 33.373103 465.18200 33.373916 465.18166 33.720641 465.17867 33.720641 465.17867 33.912042 465.17763 33.957626 465.17771 34.040447 465.17584 34.083514 465.17487 34.092649 465.17578 34.802458 465.16019 34.839641 465.15914 34.839641 465.15914 34.961456 465.15569 35.509751 465.14445 35.529028 465.14385 35.529028 465.14385 36.434671 465.11621 37.095899 465.09676 37.095899 465.09676 37.311383 465.08931 37.403831 465.08613 37.800220 465.07264 37.854138 465.07082 37.890438 465.06919 38.558038 465.05392 38.820077 465.04810 38.871217 465.04658 39.528961 465.03909 40.501723 465.02912 40.631444 465.02789 40.693601 465.02708 40.783393 465.02526 40.841472 465.02408 40.841472 465.02408 41.227067 465.01995 41.810475 465.01410 41.858183 465.01365 41.881638 465.01338 42.624380 465.00338 42.789098 465.00127 43.595081 464.98542 43.654794 464.98429 43.852911 464.98055 44.424339 464.98219 44.570393 464.98268 44.945416 464.98409 44.967809 464.98400 45.993744 464.98055 45.996370 464.98062 45.996370 464.98062 46.048365 464.98205 46.387323 464.97964 46.422562 464.97957 47.022024 464.97771 47.022024 464.97771 47.072230 464.95158 47.129594 464.93151 47.174562 464.90300 47.203477 464.83547 47.201810 464.80978 47.162685 464.69798 47.164743 464.68209 47.187154 464.65884 47.215230 464.65396 47.216101 464.65380 47.217931 464.65349 47.271309 464.63015 47.328490 464.55733 47.347880 464.54809 47.363120 464.47441 47.407303 464.42923 47.427637 464.41617 47.480585 464.40714 47.499671 464.40889 47.503264 464.41465 47.500433 464.45809 47.510287 464.46982 47.525470 464.47699 47.565809 464.47765 47.584650 464.45409 47.581695 464.39431 47.588215 464.37149 47.601256 464.34760 47.686400 464.30319 47.701553 464.24409 47.707457 464.16725 47.706874 464.11761 47.716597 464.08822 47.763012 463.99702 47.780893 463.94912 47.778966 463.89269 47.737281 463.83888 47.738776 463.79508 47.749265 463.73056 47.778280 463.71517 47.817941 463.70536 47.837659 463.69057 47.862816 463.61639 47.857445 463.59996 47.855488 463.59397 47.838041 463.58020 47.830126 463.57395 47.825827 463.56776 47.810731 463.54603 47.811819 463.51658 47.818982 463.49556 47.825460 463.48630 47.831351 463.47789 47.837782 463.46871 47.860152 463.45037 47.915158 463.44894 47.932595 463.45820 47.941359 463.46285 47.980479 463.50243 47.998836 463.50508 48.018635 463.48927 48.053183 463.44332 48.077629 463.41982 48.126475 463.39773 48.131684 463.39763 48.142958 463.39741 48.143793 463.39836 48.173001 463.43151 48.215979 463.50817 48.259423 463.52806 48.302087 463.53409 48.307066 463.53480 48.358208 463.52291 48.386834 463.50597 48.411186 463.48122 48.421396 463.45223 48.432281 463.43900 48.447981 463.42614 48.462410 463.42412 48.464397 463.42529 48.468754 463.42787 48.473355 463.43059 48.481000 463.44088 48.486355 463.44808 48.487222 463.44925 48.488576 463.45278 48.494537 463.46833 48.502027 463.48788 48.513437 463.53509 48.534248 463.56210 48.551341 463.56527 48.584585 463.55352 48.596365 463.53887 48.605331 463.50280 48.599518 463.41638 48.620285 463.35643 48.637245 463.33112 48.659015 463.31165 48.700731 463.29482 48.730737 463.29740 48.784342 463.32323 48.806123 463.33250 48.835871 463.33623 48.912604 463.25914 48.938086 463.25641 49.013846 463.26647 49.040320 463.25333 49.050258 463.24160 49.058767 463.20956 49.058104 463.16071 49.045088 463.09413 49.043805 463.06066 49.046356 463.04272 49.058795 463.01064 49.169273 462.96127 49.223089 462.90600 49.256733 462.88599 49.287424 462.88652 49.337053 462.92188 49.351633 462.92516 49.381981 462.92487 49.400549 462.90980 49.404028 462.88946 49.400532 462.84979 49.381833 462.78168 49.375488 462.76910 49.363763 462.74586 49.361219 462.74082 49.349735 462.72926 49.323596 462.71836 49.266174 462.73008 49.234715 462.71951 49.228376 462.71738 49.225779 462.71397 49.156923 462.62370 49.149709 462.60774 49.139519 462.55785 49.136329 462.52774 49.136136 462.52591 49.135610 462.52095 49.130339 462.47120 49.131062 462.46640 49.131697 462.46218 49.132862 462.45443 49.139841 462.43827 49.158465 462.41717 49.160608 462.41474 49.165782 462.41380 49.180177 462.41116 49.206637 462.40631 49.228588 462.40623 49.339430 462.43769 49.368822 462.44114 49.383033 462.43003 49.396041 462.41102 49.430080 462.39424 49.460546 462.38742 49.494958 462.36466 49.555787 462.23028 49.560913 462.14353 49.544133 462.03744 49.554813 461.94841 49.586574 461.81453 49.585206 461.79472 49.578318 461.77985 49.565528 461.77350 49.491101 461.79063 49.445710 461.78681 49.428951 461.75972 49.427369 461.73768 49.439180 461.70992 49.440257 461.70739 49.444736 461.70280 49.502188 461.64386 49.527819 461.59929 49.561129 461.51811 49.573589 461.45200 49.573148 461.42449 49.564996 461.41239 49.561752 461.40757 49.510849 461.36293 49.506114 461.33970 49.513602 461.31009 49.523411 461.30209 49.550544 461.29387 49.584397 461.23125 49.594657 461.16198 49.589586 461.00150 49.594724 460.91178 49.598536 460.89213 49.637112 460.79917 49.631565 460.73631 49.620857 460.71661 49.605942 460.71205 49.596887 460.71422 49.567983 460.73833 49.551374 460.74387 49.499313 460.73089 49.487124 460.71920 49.486159 460.70853 49.500456 460.67342 49.502369 460.65671 49.477439 460.64383 49.435124 460.64945 49.402856 460.64235 49.396818 460.63802 49.395323 460.63695 49.378186 460.62465 49.378273 460.60030 49.417892 460.55692 49.442031 460.53049 49.469309 460.47841 49.499824 460.43480 49.559429 460.40100 49.610228 460.35086 49.634197 460.26021 49.662422 460.20018 49.691598 460.17087 49.723498 460.14913 49.756439 460.14406 49.772011 460.13189 49.845517 460.00154 49.863820 459.94269 49.865349 459.91765 49.852985 459.90087 49.809593 459.88669 49.793156 459.86832 49.793483 459.81612 49.798076 459.80412 49.807983 459.79444 49.861387 459.78292 49.875542 459.77502 49.920311 459.74240 49.967879 459.69345 49.989178 459.65568 49.992399 459.64060 49.992198 459.62224 49.978371 459.58807 49.969260 459.55062 49.969199 459.55037 49.969074 459.54985 49.969173 459.52962 49.973704 459.51636 50.003238 459.50858 50.050964 459.52361 50.103104 459.52344 50.119729 459.51443 50.122081 459.51122 50.124929 459.50733 50.130422 459.49983 50.135789 459.47962 50.147017 459.43733 50.148834 459.40963 50.146377 459.38721 50.126328 459.31673 50.123153 459.30557 50.121856 459.28941 50.121016 459.27897 50.120254 459.26948 50.122096 459.26054 50.122656 459.25782 50.125192 459.24551 50.128943 459.23708 50.139081 459.21432 50.153185 459.20379 50.251419 459.17599 50.263352 459.17457 50.282622 459.17228 50.321973 459.16761 50.348500 459.16446 50.354669 459.16596 50.362343 459.16784 50.363936 459.16823 50.433468 459.21145 50.453871 459.24020 50.479623 459.24315 50.485893 459.24387 50.517726 459.23829 50.558173 459.23121 50.562817 459.23039 50.610859 459.18607 50.633772 459.17289 50.690631 459.17186 50.729498 459.15633 50.730431 459.15596 50.732180 459.15376 50.758322 459.12081 50.767123 459.07287 50.767415 459.03426 50.777611 458.99532 50.800068 458.98064 50.876346 458.96278 50.901042 458.94915 50.915731 458.93102 50.926144 458.90005 50.926505 458.88574 50.877662 458.82855 50.865451 458.78502 50.868605 458.76069 50.886263 458.74897 50.892534 458.74791 50.928448 458.74183 50.929898 458.74158 50.955109 458.74743 51.008080 458.75974 51.029865 458.76480 51.130324 458.80552 51.181356 458.81042 51.217951 458.79648 51.264772 458.76340 51.290136 458.73456 51.362584 458.66862 51.381651 458.65945 51.414777 458.65626 51.432143 458.65846 51.453517 458.67003 51.479729 458.72621 51.516401 458.76340 51.520454 458.76752 51.527391 458.77142 51.535835 458.77618 51.569448 458.79512 51.607385 458.79370 51.623501 458.78546 51.626273 458.78215 51.660114 458.74172 51.660610 458.74112 51.661083 458.73964 51.665743 458.72498 51.667806 458.71849 51.670190 458.68076 51.674812 458.66555 51.683268 458.64589 51.706496 458.59188 51.709678 458.58448 51.722581 458.56998 51.741816 458.56252 51.751345 458.55882 51.756490 458.55966 51.802114 458.56713 51.854765 458.59732 51.894753 458.61127 51.916390 458.60998 51.964059 458.58628 51.974533 458.58107 51.986373 458.58010 52.011347 458.57806 52.017276 458.57758 52.019559 458.57892 52.050533 458.59714 52.052548 458.59833 52.082585 458.62928 52.083198 458.62991 52.140422 458.65951 52.164542 458.66541 52.185255 458.65971 52.200067 458.64407 52.209894 458.62452 52.215181 458.60626 52.216640 458.57163 52.183918 458.46900 52.163911 458.44618 52.158754 458.40694 52.165148 458.37632 52.185415 458.33276 52.205997 458.30181 52.226635 458.28608 52.253899 458.27157 52.333292 458.26105 52.374432 458.23780 52.396002 458.20712 52.421537 458.12159 52.437819 458.08611 52.461482 458.06315 52.467345 458.05746 52.481245 458.04398 52.514004 458.01977 52.532413 458.00616 52.550951 457.99246 52.583179 457.95808 52.596807 457.91949 52.594799 457.89411 52.583899 457.88055 52.539501 457.84708 52.551911 457.84805 52.551911 457.84805 52.504502 457.81603 52.472450 457.81025 52.438328 457.79561 52.334715 457.73587 52.255706 457.72007 52.211775 457.72587 52.083619 457.72167 52.064404 457.72104 52.055296 457.71584 52.041585 457.70800 52.005300 457.65652 51.979009 457.55923 51.952197 457.52574 51.922341 457.49732 51.911511 457.48701 51.903268 457.48449 51.888819 457.48007 51.883925 457.47858 51.859014 457.47804 51.827882 457.47736 51.813613 457.47493 51.780840 457.46936 51.765049 457.46668 51.752746 457.46224 51.746118 457.45984 51.744784 457.45936 51.739788 457.45756 51.715371 457.43465 51.708876 457.41364 51.711377 457.40940 51.711627 457.40898 51.737826 457.36456 51.741122 457.33738 51.736403 457.32614 51.616889 457.24290 51.573686 457.18732 51.543008 457.16499 51.491311 457.13920 51.423025 457.06537 51.389576 456.99771 51.353654 456.95518 51.349552 456.94273 51.349103 456.94136 51.344171 456.92639 51.330575 456.88513 51.287328 456.79732 51.286909 456.79277 51.286286 456.78602 51.285791 456.78065 51.298217 456.74158 51.291141 456.70705 51.282384 456.68897 51.265209 456.66534 51.217617 456.65768 51.206448 456.65305 51.196850 456.64061 51.159052 456.55840 51.156013 456.51436 51.121472 456.45351 51.111297 456.40507 51.116056 456.39503 51.166441 456.34462 51.179163 456.32454 51.176599 456.30866 51.170207 456.29064 51.112608 456.19396 51.056208 456.08052 51.020773 455.99106 51.019000 455.95792 50.988515 455.88386 50.987244 455.88218 50.986963 455.88181 50.927517 455.80345 50.841408 455.72098 50.829097 455.69532 50.824027 455.66782 50.794934 455.60422 50.644809 455.40956 50.577946 455.35667 50.461093 455.30847 50.438893 455.27781 50.442095 455.25725 50.437249 455.24748 50.299774 455.14392 50.282951 455.13761 50.257646 455.13982 50.227382 455.13379 50.168988 455.10154 50.149355 455.07735 50.069556 454.90016 50.068744 454.86517 50.075481 454.85902 50.098578 454.85507 50.127814 454.85866 50.137655 454.86359 50.156938 454.87326 50.202959 454.91588 50.207452 454.92004 50.234842 454.93658 50.256691 454.94227 50.273238 454.93399 50.278142 454.91652 50.279167 454.91287 50.278436 454.90953 50.265500 454.85039 50.243689 454.82259 50.146245 454.75461 50.089613 454.74513 50.043287 454.72556 50.003217 454.69655 49.946432 454.62554 49.906465 454.62526 49.894390 454.61150 49.871687 454.55527 49.866674 454.52191 49.855139 454.49173 49.838772 454.46372 49.783994 454.39173 49.778323 454.36907 49.786261 454.32766 49.783342 454.31762 49.741950 454.30221 49.710045 454.28378 49.658140 454.22830 49.628832 454.21129 49.406982 454.08265 49.369410 454.06614 49.318102 454.06294 49.245044 454.03760 49.240615 454.02376 49.233385 454.01572 49.221405 454.00239 49.196467 453.97466 49.188923 453.97047 49.163453 453.95636 49.153335 453.95075 49.082391 453.92182 49.069910 453.90043 48.961933 453.83347 48.930164 453.80937 48.922026 453.80030 48.914775 453.79222 48.901696 453.77765 48.899203 453.77077 48.893917 453.75619 48.892878 453.75332 48.892938 453.74941 48.893560 453.70907 48.888675 453.68301 48.880391 453.65653 48.859849 453.61977 48.859754 453.58582 48.874396 453.55434 48.894696 453.53548 48.913959 453.53211 48.968425 453.54509 48.986638 453.52453 48.992206 453.50463 48.984763 453.47708 48.987553 453.46156 48.991097 453.45063 48.999340 453.39195 49.008884 453.35489 49.059993 453.30029 49.106423 453.20654 49.111673 453.16905 49.156466 453.09609 49.177250 453.06224 49.195691 453.03417 49.266176 452.97535 49.332384 452.92011 49.346824 452.88718 49.351907 452.87558 49.359156 452.84407 49.366704 452.76760 49.360184 452.71810 49.365367 452.70109 49.377309 452.67903 49.448707 452.60689 49.458406 452.59368 49.476389 452.56920 49.505791 452.51773 49.547817 452.47337 49.559371 452.44907 49.565961 452.43521 49.571585 452.41127 49.569968 452.38457 49.566110 452.37167 49.550842 452.32062 49.490133 452.24429 49.457753 452.19234 49.443535 452.18405 49.402937 452.18188 49.380074 452.19908 49.353615 452.20948 49.233255 452.20196 49.192583 452.17864 49.180440 452.15190 49.177343 452.13381 49.177435 452.11077 49.182187 452.09266 49.199577 452.06785 49.278945 451.98987 49.293213 451.96454 49.293180 451.96325 49.293172 451.96292 49.292275 451.92754 49.279953 451.89981 49.236616 451.83259 49.189098 451.79155 49.171093 451.77020 49.154207 451.74016 49.150284 451.71696 49.155094 451.68934 49.154126 451.66909 49.149697 451.65379 49.084581 451.55726 49.060621 451.54399 49.019673 451.53870 49.014219 451.53799 48.999725 451.53007 48.996180 451.52813 48.961482 451.50916 48.937991 451.47900 48.917901 451.44100 48.890624 451.38942 48.875083 451.36917 48.865819 451.36520 48.826103 451.36350 48.739441 451.37674 48.644929 451.40829 48.619079 451.41692 48.603895 451.41724 48.569523 451.41798 48.552090 451.40993 48.537186 451.39202 48.529569 451.37794 48.517951 451.35647 48.507435 451.30985 48.502085 451.25995 48.488840 451.23413 48.455045 451.20586 48.381028 451.16701 48.347893 451.12856 48.340938 451.12049 48.338131 451.10347 48.342582 451.07060 48.350781 451.05211 48.397225 450.99951 48.428152 450.96448 48.431374 450.96084 48.435833 450.95368 48.436408 450.95276 48.456418 450.92064 48.462448 450.89701 48.458899 450.87926 48.430904 450.82299 48.427635 450.81642 48.426062 450.81326 48.400245 450.74671 48.373167 450.72350 48.366367 450.71437 48.360281 450.70620 48.357851 450.70293 48.344871 450.66857 48.321312 450.60622 48.289731 450.49703 48.277030 450.45313 48.285603 450.43045 48.302225 450.38647 48.335921 450.33978 48.389451 450.31835 48.392464 450.31873 48.392579 450.31875 48.440710 450.32482 48.444569 450.32403 48.459800 450.32092 48.474094 450.31800 48.475832 450.31674 48.497245 450.30126 48.499215 450.29983 48.500468 450.29557 48.505134 450.27969 48.505796 450.27744 48.505414 450.27519 48.499911 450.24282 48.485353 450.21887 48.464678 450.18487 48.455260 450.16938 48.454750 450.16910 48.411392 450.14550 48.386732 450.12477 48.379908 450.11433 48.337333 450.04922 48.305262 449.98375 48.305068 449.95800 48.363936 449.90654 48.374182 449.89018 48.384404 449.85872 48.405058 449.71057 48.399029 449.67577 48.387083 449.65874 48.326168 449.65195 48.302316 449.64117 48.292948 449.62823 48.296808 449.59980 48.320829 449.56494 48.335103 449.53258 48.342504 449.51267 48.373130 449.46696 48.386906 449.36143 48.389076 449.34481 48.390983 449.33020 48.385398 449.29113 48.381267 449.28429 48.380621 449.28322 48.377233 449.27761 48.357226 449.24447 48.352613 449.23683 48.348681 449.21185 48.350719 449.19966 48.357636 449.17373 48.371925 449.15151 48.398794 449.12093 48.415024 449.10247 48.419337 449.09756 48.430053 449.08948 48.442094 449.08041 48.449644 449.07472 48.459991 449.07061 48.503852 449.05322 48.515990 449.04841 48.522065 449.04734 48.554988 449.04157 48.572672 449.03847 48.587053 449.03840 48.591569 449.03837 48.621245 449.03822 48.656155 449.05045 48.658728 449.05136 48.733587 449.12082 48.743599 449.13011 48.752651 449.13851 48.772019 449.14833 48.788817 449.15685 48.798921 449.16198 48.819674 449.16436 48.837140 449.16636 48.842585 449.16699 49.007221 449.13878 49.061263 449.11052 49.150764 449.07866 49.189873 449.04077 49.287204 448.92101 49.335291 448.86186 49.418963 448.79438 49.430441 448.76507 49.437656 448.73119 49.448682 448.61592 49.442164 448.54208 49.440837 448.44463 49.446938 448.37765 49.468143 448.25274 49.471424 448.23341 49.475005 448.17545 49.475078 448.17428 49.472581 448.11910 49.454745 448.06810 49.425476 448.02407 49.423117 447.97691 49.428824 447.94053 49.429428 447.93668 49.424561 447.91994 49.419651 447.90305 49.401663 447.84118 49.401652 447.82805 49.428244 447.75208 49.466302 447.58649 49.477684 447.47606 49.478384 447.46927 49.484836 447.45395 49.488689 447.44481 49.491732 447.43758 49.500752 447.41617 49.506423 447.41076 49.519111 447.39866 49.524034 447.39397 49.536876 447.38999 49.605713 447.36868 49.634564 447.34436 49.646603 447.32539 49.683034 447.29604 49.689310 447.29098 49.724018 447.27503 49.748018 447.26401 49.759734 447.25862 49.789771 447.25386 49.853873 447.26698 49.971567 447.30262 50.011446 447.32751 50.030731 447.33234 50.094173 447.31287 50.094470 447.31255 50.123316 447.28137 50.127365 447.27846 50.132219 447.27497 50.146500 447.26469 50.158426 447.25916 50.176442 447.25080 50.257999 447.21298 50.292709 447.18598 50.305541 447.16278 50.393064 446.95009 50.402742 446.92137 50.435370 446.82454 50.458480 446.74173 50.464212 446.66103 50.466344 446.63103 50.477520 446.57811 50.483132 446.56990 50.512079 446.52754 50.568178 446.47319 50.621735 446.43217 50.626141 446.42789 50.701659 446.35454 50.779033 446.29358 50.821531 446.27920 50.842829 446.27720 50.880172 446.27371 50.920984 446.25045 50.959258 446.22053 51.014560 446.16843 51.120105 446.05315 51.150073 446.00299 51.185878 445.93534 51.219873 445.85573 51.248919 445.77031 51.249994 445.76797 51.250073 445.76779 51.304393 445.64943 51.341123 445.55737 51.341275 445.55723 51.341277 445.55722 51.392248 445.50973 51.479122 445.46697 51.497816 445.45777 51.535310 445.42454 51.741401 445.32399 51.861133 445.23690 51.861200 445.23686 51.861571 445.23659 51.867516 445.23180 51.890504 445.21329 51.945519 445.16899 51.953662 445.15912 51.973429 445.10943 51.974820 445.10593 51.983651 445.08373 52.037442 444.98636 52.037443 444.98636 52.037528 444.98620 52.042126 444.97096 52.069308 444.88084 52.070546 444.87752 52.070563 444.87747 52.080457 444.85091 52.091569 444.83429 52.113762 444.81326 52.178535 444.78792 52.237389 444.75035 52.266448 444.71603 52.364843 444.56205 52.371733 444.53765 52.371041 444.48660 52.362656 444.44440 52.348280 444.41105 52.336756 444.39420 52.209816 444.27966 52.190248 444.27073 52.164696 444.26843 52.091069 444.27333 52.084600 444.27376 52.068725 444.26981 52.054999 444.26641 52.054147 444.26619 52.020268 444.24951 52.018349 444.24822 51.963933 444.21167 51.856655 444.11888 51.831106 444.11327 51.800428 444.11431 51.698960 444.14071 51.663142 444.15630 51.594912 444.18599 51.565076 444.19370 51.565076 444.19370 51.542074 444.19254 51.513975 444.18361 51.483363 444.15247 51.462131 444.11247 51.452150 444.08691 51.447696 444.07551 51.444395 444.06706 51.424818 444.01694 51.413468 443.96637 51.405378 443.93033 51.380722 443.89699 51.334758 443.86139 51.308926 443.84910 51.303888 443.84671 51.298851 443.84431 51.292693 443.84138 51.269177 443.83020 51.259181 443.82308 51.259165 443.82307 51.259149 443.82306 51.241071 443.81018 51.225089 443.79228 51.223202 443.79017 51.208754 443.76240 51.195183 443.71909 51.185826 443.70575 51.161127 443.68907 51.021356 443.65113 50.956591 443.61775 50.775883 443.55539 50.751158 443.55203 50.675253 443.56528 50.642403 443.56145 50.640788 443.56126 50.636885 443.56081 50.578067 443.53524 50.566664 443.52891 50.474060 443.47745 50.452238 443.46385 50.284633 443.35936 50.215696 443.31640 50.157668 443.26713 50.137233 443.24979 50.117541 443.22672 50.108075 443.21564 50.086047 443.18984 49.980882 443.08191 49.932469 443.03223 49.905152 443.01226 49.894973 443.00684 49.891215 443.00485 49.867602 442.99229 49.751951 442.95125 49.675946 442.92429 49.673489 442.92342 49.664464 442.92022 49.650581 442.91061 49.638664 442.90237 49.637053 442.90125 49.598725 442.87474 49.562842 442.82593 49.553851 442.80797 49.496178 442.69278 49.433170 442.61790 49.423598 442.60653 49.407584 442.58750 49.385091 442.56078 49.243286 442.50098 49.199727 442.49214 49.076700 442.44677 49.075061 442.44584 49.075051 442.44583 49.038672 442.42502 48.981828 442.39251 48.928684 442.35405 48.916000 442.34488 48.899645 442.32898 48.895382 442.32484 48.888631 442.31828 48.859520 442.27060 48.843984 442.20407 48.843187 442.20066 48.840605 442.18960 48.840188 442.17284 48.839595 442.14898 48.838803 442.11710 48.836964 442.04310 48.838875 442.02803 48.843499 441.99155 48.846252 441.96983 48.851433 441.95230 48.864565 441.90787 48.864957 441.90654 48.876460 441.88099 48.887956 441.85546 48.893546 441.83822 48.898389 441.82328 48.906675 441.79772 48.892073 441.72246 48.881700 441.66901 48.859408 441.62465 48.838250 441.59244 48.801128 441.53595 48.782286 441.51600 48.756596 441.49162 48.711251 441.47505 48.507582 441.46969 48.435035 441.46780 48.418535 441.46341 48.418532 441.46341 48.381135 441.45348 48.329732 441.41253 48.200309 441.28962 48.109520 441.23657 47.989634 441.18693 47.917679 441.16475 47.680318 441.10819 47.675895 441.10804 47.542449 441.10333 47.527278 441.10279 47.490234 441.10149 47.438973 441.10736 47.420194 441.10951 47.350862 441.11746 47.292150 441.11561 47.285233 441.11539 47.274990 441.11507 47.234863 441.11380 47.173229 441.10515 47.078731 441.07384 47.076162 441.07299 47.065231 441.06613 47.002780 441.02694 46.967796 441.00499 46.955223 440.99357 46.955185 440.99354 46.852292 440.90010 46.819056 440.86993 46.818056 440.86903 46.791863 440.84687 46.790364 440.84560 46.758312 440.81849 46.726638 440.79171 46.657428 440.73319 46.589386 440.68154 46.577565 440.67256 46.544051 440.64712 46.531793 440.63915 46.446994 440.58402 46.446994 440.58402 46.336126 440.66696 46.260574 440.70975 46.144026 440.77578 46.116749 440.79124 46.112560 440.79325 46.066700 440.81521 46.034781 440.83051 45.950552 440.86335 45.881902 440.89014 45.783603 440.92115 45.731546 440.93758 45.564018 440.97182 45.385299 440.99396 45.373669 440.99442 45.265655 440.99866 45.119105 441.00445 45.038772 440.99963 44.920473 440.98852 44.902569 440.98532 44.718409 440.95152 44.568750 440.91001 44.568750 440.91001 44.510315 440.89043 44.327415 440.81171 44.177414 440.72842 44.177414 440.72842 44.154483 440.71570 44.128269 440.70115 44.116308 440.69267 43.997283 440.60839 43.861416 440.49173 43.844360 440.47473 43.840275 440.47067 43.829308 440.45974 43.774402 440.40505 43.745376 440.37225 43.713902 440.33669 43.692804 440.31285 43.656409 440.26649 43.653037 440.26219 43.624377 440.22569 43.603720 440.19469 43.567921 440.14099 43.549148 440.11283 43.536939 440.09068 43.536892 440.09060 43.485806 439.99793 43.435975 439.89380 43.425775 439.86736 43.379493 439.74742 43.370235 439.72343 43.243323 439.71788 43.243323 439.71788 43.147305 439.71952 43.057272 439.72059 43.044621 439.72068 42.784976 439.72248 41.754764 439.73051 41.591975 439.73191 41.440961 439.73323 41.317431 439.73844 41.192707 439.73889 40.268370 439.74697 40.111984 439.74845 40.108839 439.74848 39.429961 439.75526 39.429961 439.75526 39.372238 439.75605 39.166538 439.75893 38.580548 439.76741 38.540261 439.76801 38.487976 439.76879 38.487976 439.76879 38.171689 439.77359 38.167403 439.77366 38.038820 439.77454 37.961705 439.77617 37.961705 439.77617 37.840838 439.77875 37.839963 439.77766 37.665115 439.78075 37.477405 439.78412 37.213409 439.78894 36.997417 439.79257 36.920195 439.79368 36.708386 439.79679 36.549109 439.79916 36.549109 439.79916 36.209823 439.80487 36.007549 439.80834 35.820298 439.81161 35.793583 439.81208 35.557296 439.81627 35.411600 439.81889 35.327644 439.82041 35.295930 439.82102 34.934221 439.82605 34.682987 439.82965 34.682987 439.82965 34.567975 439.83041 34.517514 439.83075 34.493536 439.83234 33.877022 439.84206 33.800008 439.84331 33.736013 439.84466 33.401493 439.85515 33.075819 439.85526 32.935817 439.85535 32.861254 439.85735 32.485102 439.86757 32.454127 439.86842 32.359032 439.87282 32.353006 439.87185 31.539432 439.89029 31.431307 439.89280 30.999470 439.90300 30.999470 439.90300 30.995388 439.90311 30.995388 439.90311 30.802307 439.90791 30.772305 439.90866 30.772305 439.90866 30.113977 439.92550 29.853580 439.93231 29.758727 439.93482 29.758727 439.93482 29.758727 439.93482 29.745349 439.93517 29.668693 439.93720 29.602254 439.93897 29.583213 439.93948 29.495859 439.94182 28.919727 439.95748 28.836410 439.95978 28.836410 439.95978 28.600887 439.96701 28.285896 439.97678 28.273996 439.97678 28.199934 439.97932 27.669336 439.99779 27.118763 440.01734 27.095588 440.01817 27.076126 440.01952 26.651011 440.03285 26.651011 440.03285 26.578213 440.03729 26.487478 440.04130 26.390351 440.04504 26.390351 440.04504 26.270391 440.04967 26.152307 440.05457 26.085650 440.05735 25.676525 440.07450 25.593543 440.07801 25.437987 440.08460 25.360428 440.08790 25.120157 440.09580 24.823396 440.10566 24.812764 440.10601 24.324442 440.12249 23.654372 440.14561 23.636922 440.14606 23.438012 440.15315 23.166158 440.16292 22.778379 440.17703 22.547155 440.18554 22.533866 440.18717 22.226226 440.19799 22.202481 440.19866 21.980956 440.20793 21.980348 440.20821 21.873129 440.21230 21.451466 440.22854 21.396538 440.22805 21.375760 440.22984 21.367523 440.22972 21.350199 440.23065 21.350199 440.23065 21.024294 440.24262 20.524413 440.26127 20.411888 440.26811 20.330968 440.27304 20.195452 440.27741 20.061489 440.28176 19.676828 440.29439 19.643850 440.29756 19.602295 440.30155 19.349430 440.30818 19.223765 440.31374 19.144404 440.31727 18.671109 440.33845 18.422585 440.34968 18.083877 440.36513 17.974725 440.36950 17.663297 440.38204 17.542704 440.38692 17.356396 440.39452 16.987466 440.40968 16.440140 440.43251 16.303404 440.43827 16.303404 440.43827 15.322808 440.48317 15.227367 440.48697 14.963662 440.49754 13.942881 440.53929 13.533487 440.55642 12.346333 440.60732 11.625111 440.63915 11.625111 440.63915 11.221464 440.65726 11.009195 440.66687 10.636277 440.68897 10.579800 440.69233 10.496944 440.69727 10.476415 440.69935 9.616191 440.74074 9.534688 440.74472 9.380518 440.75225 9.162736 440.76296 9.162736 440.76296 8.398301 440.80335 8.396355 440.80345 8.374324 440.80473 8.359946 440.80556 7.855726 440.83499 7.221718 440.87246 6.777533 440.89902 6.602525 440.90956 6.485760 440.91661 5.641556 440.96468 5.041775 440.99940 4.670487 441.02113 4.489805 441.03178 4.482879 441.03197 3.715080 441.07729 3.522742 441.08877 3.522742 441.08877 3.256929 441.10569 3.236017 441.10702 3.174532 441.11095 2.682663 441.14257 2.682663 441.14257 2.730334 441.92331 2.740174 442.08432 2.775660 442.61593 2.783080 442.72704 2.803040 443.02580 2.831668 443.53699 2.834335 443.56159 2.845855 443.75557 2.847509 443.78609 2.849470 443.81975 2.850223 443.83038 2.887546 444.41938 2.887546 444.41938 2.887822 444.42372 2.906670 444.72018 2.923926 444.99148 2.928170 445.05817 2.930346 445.09236 2.931507 445.10442 2.948692 445.38676 2.976201 445.83840 2.986704 446.01072 2.986704 446.01072 2.996163 446.15590 2.996181 446.15620 3.012089 446.41102 3.046730 446.96553 3.071754 447.36574 3.095902 447.75166 3.113775 448.03711 3.115276 448.05313 3.119853 448.10195 3.139792 448.31465 3.140657 448.32389 3.162141 448.66712 3.162141 448.66712 3.208957 449.37342 3.208606 449.38699 3.208606 449.38701 3.205729 449.49853 3.207922 449.53412 3.208259 449.53958 3.236033 449.99015 3.236007 449.99015 3.264879 450.44971 3.286444 450.79272 3.286173 450.79260 3.304492 451.08390 3.304894 451.08394 3.319991 451.31780 3.320962 451.33284 3.320962 451.33284 3.355601 451.88592 3.389082 452.41996 3.412354 452.79087 3.415621 452.84292 3.420126 452.91467 3.425645 453.00257 3.427865 453.03794 3.434680 453.13702 3.467566 453.66955 3.468723 453.67969 3.468723 453.67969 3.469618 453.69373 3.488166 453.98482 3.497421 454.23310 3.497421 454.23310 3.497837 454.24315 3.498592 454.25817 3.498592 454.25817 3.501133 454.30874 3.508710 454.38041 3.517998 454.46827 3.518284 454.47272 3.525668 454.58748 3.532817 454.69857 3.534391 454.72301 3.539198 454.79769 3.541143 454.82790 3.550630 454.97526 3.569766 455.27235 3.569766 455.27235 3.571192 455.29448 3.585757 455.51596 3.595984 455.67862 3.611347 455.92286 3.611347 455.92286 3.618008 456.02872 3.618677 456.03885 3.624911 456.13321 3.625285 456.14336 3.627177 456.17835 3.631408 456.25682 3.637430 456.35217 3.644322 456.46506 3.646962 456.51552 3.656123 456.63316 3.662008 456.73426 3.662377 456.73424 3.662377 456.73424 3.662419 456.73489 3.666926 456.82636 3.666926 456.82636 3.675961 456.96160 3.686712 457.13298 3.686712 457.13298 3.693861 457.24691 3.706340 457.42547 3.706340 457.42547 3.723363 457.66896 3.723363 457.66896 3.729682 457.77613 3.729682 457.77613 3.730007 457.78166 3.730715 457.79277 3.735878 457.87386 3.739344 457.92829 3.739344 457.92829 3.747690 458.04261 3.752554 458.10924 3.762414 458.29041 3.763699 458.32378 3.763699 458.32378 3.763777 458.32540 3.791821 458.73861 3.793903 458.81543 3.793903 458.81543 3.807710 459.04974 3.809322 459.07710 3.810163 459.09029 3.810184 459.09061 3.811264 459.11149 3.811416 459.11150 3.811842 459.11817 3.811755 459.12365 3.812176 459.13026 3.826782 459.34689 3.826782 459.34689 3.827369 459.35559 3.835423 459.47750 3.840059 459.55429 3.868564 459.97095 3.868831 459.97093 3.878029 460.11480 3.878029 460.11480 3.882336 460.18217 3.885784 460.24056 3.885784 460.24056 3.900139 460.48360 3.918598 460.77723 3.919042 460.78427 3.926221 460.89844 3.926221 460.89844 3.947311 461.21882 3.953285 461.33586 3.962322 461.47711 3.981134 461.77100 4.039569 462.68296 4.046124 462.78516 4.046608 462.80143 4.068624 463.13737 4.077764 463.28108 4.095397 463.55823 4.105104 463.70404 4.109243 463.76146 4.115229 463.84450 4.175200 464.78255 4.175200 464.78255 4.183896 464.91844 4.184695 464.93093 4.187312 464.97182 4.199365 465.16009 4.215992 465.41972 4.215992 465.41972 4.231813 465.66664 4.237744 465.75563 4.242787 465.83129 4.247042 465.89965 4.247042 465.89965 4.265035 466.18865 4.265850 466.20382 4.265850 466.20382 4.340229 466.23156 4.564292 466.31517 4.981744 466.47119 5.056902 466.48946 5.198660 466.52396 5.404023 466.60264 5.439242 466.61614 5.511526 466.64386 5.521345 466.64173 5.582092 466.67450 5.586100 466.67666 5.595521 466.68175 5.611602 466.68418 5.703045 466.69802 5.713727 466.69964 5.747007 466.71104 5.755859 466.71407 5.876786 466.75551 5.889539 466.76118 5.921984 466.77559 6.144298 466.87444 6.160758 466.88176 6.294078 466.94901 6.449645 467.02753 6.518295 467.06220 6.667005 467.13733 6.729099 467.16871 6.885917 467.23784 6.909568 467.24828 6.984940 467.28152 7.030650 467.30169 7.090991 467.32833 7.155257 467.36782 7.167770 467.37551 7.186636 467.38710 7.211156 467.40218 7.282469 467.44602 7.286465 467.44960 7.313117 467.47352 7.386051 467.53897 7.516484 467.82958 7.557411 467.92081 7.609490 467.98895 7.724128 468.09364 7.778848 468.10753 7.811619 468.11585 7.859651 468.12805 7.967120 468.15535 8.057759 468.12852 8.089144 468.09762 8.030883 468.04499 8.091910 467.94919 8.033126 467.90922 8.051405 467.86800 8.085766 467.84589 8.115240 467.83972 8.175073 467.82720 8.294187 467.88958 8.341648 467.91444 8.352576 467.92017 8.392495 467.94108 8.451806 467.97217 8.517924 468.00683 8.587757 468.04345 8.600435 468.05010 8.677455 468.09050 8.754100 468.13072 8.783453 468.14612 8.790311 468.14972 8.824971 468.17075 8.829676 468.17360 8.833144 468.17571 8.881625 468.20513 9.042558 468.30282 9.110626 468.34415 9.217985 468.40937 9.287464 468.45160 9.349093 468.45704 9.490854 468.52312 9.523191 468.53820 9.543839 468.54782 9.637866 468.60982 9.671809 468.63220 9.825980 468.69096 10.021301 468.72980 10.116994 468.77966 10.173729 468.80923 10.415571 468.93535 10.419378 468.93704 10.614502 469.02374 10.725372 469.07303 10.725372 469.07303 10.723846 469.04605 10.713749 468.86749 10.707034 468.77539 10.706087 468.75717 10.672723 468.11519 10.669486 468.07154 10.665592 468.00074 10.660320 467.88244 10.655220 467.80056 10.652048 467.74961 10.637805 467.53352 10.633614 467.39721 10.613227 467.03646 10.585306 466.54207 10.585279 466.54159 10.570917 466.28713 10.562061 466.06507Z"/>
</g>
<g id="Unknown_Line_Type_st42_d00_e00" style="fill:none;stroke:rgb(0,0,0);stroke-width:0.000500;stroke-linecap:round">
	<polyline points="10.562069,466.06514 10.570918,466.28719 10.585285,466.54166 10.585312,466.54213 10.613233,467.03653 10.633619,467.39727 10.637813,467.53359 10.652057,467.74968 10.655229,467.80062 10.660327,467.88250 10.665597,468.00080 10.669489,468.07160 10.672724,468.11525 10.706095,468.75724 10.707042,468.77546 10.713755,468.86756 10.723846,469.04612 10.725371,469.07310"/>
	<polyline points="4.265861,466.20383 4.340240,466.23160 4.564302,466.31527 4.981751,466.47122 5.056909,466.48947 5.198664,466.52402 5.404024,466.60275 5.439242,466.61625 5.511526,466.64396 5.521344,466.64183 5.582093,466.67459 5.586101,466.67676 5.595522,466.68184 5.611603,466.68427 5.703047,466.69808 5.713730,466.69970 5.747010,466.71108 5.755863,466.71411 5.876792,466.75553 5.889545,466.76120 5.921990,466.77564 6.144306,466.87454 6.160767,466.88186 6.294088,466.94911 6.449656,467.02761 6.518305,467.06225 6.667015,467.13734 6.729108,467.16876 6.885924,467.23794 6.909575,467.24837 6.984946,467.28163 7.030655,467.30180 7.090995,467.32843 7.155259,467.36791 7.167772,467.37560 7.186638,467.38719 7.211156,467.40226 7.282468,467.44608 7.286465,467.44966 7.313118,467.47357 7.386055,467.53899 7.516495,467.82962 7.557421,467.92086 7.609500,467.98902 7.724135,468.09373 7.778855,468.10763 7.811626,468.11595 7.859657,468.12815 7.967126,468.15545 8.057765,468.12859 8.089150,468.09768 8.030891,468.04507 8.091920,467.94924 8.033135,467.90929 8.051415,467.86807 8.085776,467.84594 8.115250,467.83976 8.175084,467.82722 8.294197,467.88962 8.341658,467.91450 8.352585,467.92023 8.392504,467.94116 8.451814,467.97226 8.517932,468.00693 8.587764,468.04355 8.600442,468.05020 8.677461,468.09060 8.754104,468.13081 8.783457,468.14621 8.790315,468.14981 8.824974,468.17082 8.829678,468.17368 8.833147,468.17578 8.881627,468.20518 9.042560,468.30284 9.110629,468.34420 9.217990,468.40946 9.287470,468.45169 9.349099,468.45715 9.490862,468.52322 9.523200,468.53829 9.543848,468.54791 9.637875,468.60988 9.671818,468.63225 9.825990,468.69097 10.021310,468.72989 10.117002,468.77976 10.173736,468.80933 10.415576,468.93542 10.419382,468.93710 10.614504,469.02376 10.725371,469.07310"/>
	<polyline points="33.720644,465.17877 33.912044,465.17773 33.957629,465.17779 34.040450,465.17590 34.083516,465.17492 34.092652,465.17582 34.802460,465.16026 34.839644,465.15919"/>
	<polyline points="34.839644,465.15919 34.961459,465.15570 35.509754,465.14453 35.529030,465.14392"/>
	<polyline points="35.529030,465.14392 36.434674,465.11623 37.095902,465.09683"/>
	<polyline points="33.720644,465.17877 33.373919,465.18168 33.373107,465.18202 32.998442,465.18752 32.908859,465.18884 32.581873,465.18908 32.486720,465.18923 32.403205,465.18936 32.262754,465.19321 31.616868,465.21120 31.024417,465.22817 30.811326,465.23447 30.718062,465.23723 29.794365,465.26514 29.491175,465.27452 29.435658,465.27628 29.250959,465.28215 28.385157,465.30191 27.411916,465.32534 27.224366,465.32999"/>
	<polyline points="37.095902,465.09683 37.311386,465.08934 37.403833,465.08620 37.800222,465.07272 37.854140,465.07089 37.890440,465.06924 38.558040,465.05401 38.820080,465.04812 38.871219,465.04663 39.528963,465.03910 40.501725,465.02920 40.631446,465.02800 40.693603,465.02718 40.783395,465.02536 40.841474,465.02417"/>
	<polyline points="16.362202,465.76788 16.435025,465.76401 16.950617,465.73707 17.009851,465.73398 17.189350,465.72250 17.541346,465.70024 17.883049,465.67875 17.906354,465.67729 18.690927,465.64680 18.942165,465.63720 19.229588,465.62917 19.833972,465.61252 19.833972,465.61252 19.833972,465.61252 19.833972,465.61252 20.035882,465.60709 20.211274,465.60238 20.324724,465.59733 20.418318,465.59321 20.726671,465.57981 21.318786,465.55429 22.251649,465.51515 22.282898,465.51386 22.478343,465.50580 22.601010,465.50074"/>
	<polyline points="22.601010,465.50074 22.906671,465.48406 22.935008,465.48337 22.935008,465.48337 23.442045,465.47098 23.751202,465.46376 23.967317,465.45872 24.120556,465.45514 24.416533,465.44002 24.663857,465.42747 24.895044,465.41574 24.896808,465.41542 25.084959,465.40400 25.165534,465.39914 25.173671,465.39865 25.461504,465.38810 25.969850,465.36970 25.969850,465.36970 25.969850,465.36970 26.432756,465.35323 26.544249,465.34930 26.620718,465.34706 27.224366,465.32999"/>
	<polyline points="16.362202,465.76788 15.791245,465.79647 15.476707,465.81255 15.390542,465.81696 15.383261,465.81722 15.382958,465.81724 14.800332,465.83879 14.499544,465.85282 13.605002,465.89523 12.955066,465.92681 12.797480,465.93590 12.636036,465.94530 12.408661,465.95866 12.301539,465.96591 11.816250,465.99543"/>
	<polyline points="45.996371,464.98072 46.048366,464.98215 46.387323,464.97967 46.422563,464.97958 47.022025,464.97779"/>
	<polyline points="11.816250,465.99543 11.689407,466.00325 11.689484,466.00252 11.318189,466.02638 11.040999,466.04050 10.634943,466.06139 10.569103,466.06478 10.562069,466.06514"/>
	<polyline points="40.841474,465.02417 41.227069,465.02002 41.810477,465.01412 41.858185,465.01366 41.881639,465.01340 42.624381,465.00339 42.789100,465.00135 43.595082,464.98551 43.654796,464.98438 43.852913,464.98065 44.424340,464.98229 44.570394,464.98279 44.945417,464.98411 44.967810,464.98403 45.993745,464.98065 45.996371,464.98072"/>
	<polyline points="47.022025,464.97779 47.072230,464.95164 47.129595,464.93155 47.174563,464.90302 47.203477,464.83547 47.201810,464.80978 47.162686,464.69801 47.164743,464.68211 47.187154,464.65885 47.215231,464.65396 47.216101,464.65381 47.217931,464.65349 47.271310,464.63019 47.328491,464.55739 47.347880,464.54815 47.363120,464.47448 47.407303,464.42931 47.427637,464.41625 47.480585,464.40724 47.499671,464.40899 47.503264,464.41475 47.500433,464.45819 47.510287,464.46992 47.525471,464.47709 47.565809,464.47775 47.584650,464.45419 47.581695,464.39441 47.588215,464.37160 47.601256,464.34770 47.686400,464.30329 47.701553,464.24418 47.707457,464.16734 47.706874,464.11770 47.716597,464.08832 47.763013,463.99710 47.780893,463.94920 47.778967,463.89277 47.737282,463.83896 47.738777,463.79517 47.749266,463.73065 47.778280,463.71525 47.817941,463.70542 47.837659,463.69064 47.862816,463.61644 47.857446,463.60001 47.855488,463.59402 47.838041,463.58026 47.830127,463.57401 47.825827,463.56783 47.810731,463.54610 47.811819,463.51665 47.818983,463.49562 47.825460,463.48637 47.831351,463.47795 47.837782,463.46877 47.860152,463.45042 47.915158,463.44896 47.932595,463.45821 47.941359,463.46286 47.980479,463.50244 47.998836,463.50509 48.018635,463.48929 48.053183,463.44336 48.077629,463.41987 48.126475,463.39780 48.131684,463.39770 48.142958,463.39748 48.143793,463.39843 48.173001,463.43159 48.215979,463.50827 48.259423,463.52816 48.302087,463.53420 48.307066,463.53490 48.358208,463.52301 48.386834,463.50607 48.411186,463.48132 48.421396,463.45233 48.432281,463.43909 48.447981,463.42623 48.462410,463.42421 48.464397,463.42539 48.468754,463.42796 48.473355,463.43068 48.481000,463.44097 48.486355,463.44817 48.487222,463.44934 48.488576,463.45287 48.494537,463.46842 48.502027,463.48796 48.513437,463.53518 48.534248,463.56218 48.551341,463.56535 48.584585,463.55359 48.596365,463.53893 48.605331,463.50286 48.599518,463.41644 48.620285,463.35648 48.637245,463.33117 48.659015,463.31169 48.700731,463.29484 48.730737,463.29740 48.784342,463.32325 48.806123,463.33253 48.835871,463.33628 48.912604,463.25921 48.938086,463.25649 49.013847,463.26657 49.040320,463.25343 49.050258,463.24170 49.058767,463.20966 49.058105,463.16081 49.045088,463.09423 49.043806,463.06076 49.046356,463.04282 49.058795,463.01075 49.169273,462.96137 49.223090,462.90610 49.256733,462.88609 49.287424,462.88660 49.337053,462.92195 49.351633,462.92523 49.381982,462.92492 49.400549,462.90985 49.404029,462.88951 49.400532,462.84984 49.381833,462.78173 49.375488,462.76916 49.363763,462.74592 49.361219,462.74088 49.349735,462.72933 49.323596,462.71843 49.266174,462.73017 49.234715,462.71960 49.228376,462.71747 49.225779,462.71407 49.156923,462.62380 49.149709,462.60784 49.139519,462.55795 49.136329,462.52784 49.136136,462.52601 49.135610,462.52105 49.130339,462.47131 49.131062,462.46650 49.131697,462.46229 49.132862,462.45454 49.139841,462.43838 49.158465,462.41728 49.160608,462.41485 49.165782,462.41390 49.180177,462.41126 49.206637,462.40641 49.228588,462.40633 49.339430,462.43776 49.368822,462.44120 49.383033,462.43008 49.396041,462.41107 49.430080,462.39428 49.460546,462.38744 49.494958,462.36466 49.555787,462.23031 49.560913,462.14356 49.544133,462.03746 49.554814,461.94844 49.586574,461.81457 49.585206,461.79477 49.578318,461.77989 49.565528,461.77353 49.491101,461.79064 49.445710,461.78684 49.428951,461.75975 49.427369,461.73772 49.439180,461.70996 49.440257,461.70742 49.444736,461.70283 49.502188,461.64387 49.527819,461.59931 49.561129,461.51814 49.573589,461.45204 49.573148,461.42453 49.564996,461.41242 49.561752,461.40760 49.510849,461.36293 49.506114,461.33971 49.513602,461.31010 49.523411,461.30210 49.550544,461.29389 49.584398,461.23129 49.594657,461.16202 49.589586,461.00154 49.594724,460.91182 49.598536,460.89217 49.637112,460.79923 49.631565,460.73637 49.620857,460.71667 49.605942,460.71209 49.596887,460.71426 49.567983,460.73837 49.551374,460.74390 49.499313,460.73089 49.487125,460.71921 49.486159,460.70854 49.500456,460.67342 49.502369,460.65671 49.477439,460.64384 49.435124,460.64949 49.402856,460.64240 49.396818,460.63807 49.395323,460.63700 49.378186,460.62471 49.378273,460.60035 49.417892,460.55696 49.442031,460.53052 49.469309,460.47843 49.499824,460.43481 49.559429,460.40103 49.610228,460.35091 49.634197,460.26027 49.662422,460.20025 49.691598,460.17094 49.723498,460.14921 49.756440,460.14415 49.772011,460.13198 49.845517,460.00165 49.863820,459.94279 49.865349,459.91776 49.852985,459.90097 49.809593,459.88679 49.793156,459.86842 49.793483,459.81622 49.798076,459.80421 49.807983,459.79454 49.861387,459.78302 49.875542,459.77513 49.920311,459.74250 49.967879,459.69355 49.989178,459.65577 49.992399,459.64070 49.992198,459.62233 49.978371,459.58817 49.969260,459.55072 49.969199,459.55047 49.969074,459.54995 49.969173,459.52972 49.973704,459.51646 50.003238,459.50867 50.050964,459.52370 50.103104,459.52351 50.119729,459.51449 50.122081,459.51128 50.124929,459.50739 50.130422,459.49989 50.135789,459.47968 50.147017,459.43739 50.148834,459.40969 50.146377,459.38727 50.126328,459.31679 50.123153,459.30563 50.121855,459.28948 50.121016,459.27903 50.120254,459.26955 50.122096,459.26061 50.122656,459.25789 50.125192,459.24557 50.128943,459.23715 50.139081,459.21438 50.153185,459.20385 50.251419,459.17600 50.263352,459.17457 50.282622,459.17228 50.321973,459.16763 50.348500,459.16449 50.354669,459.16600 50.362343,459.16788 50.363936,459.16827 50.433468,459.21152 50.453871,459.24027 50.479623,459.24323 50.485893,459.24395 50.517726,459.23838 50.558173,459.23130 50.562817,459.23049 50.610859,459.18617 50.633772,459.17299 50.690631,459.17197 50.729498,459.15644 50.730431,459.15606 50.732180,459.15386 50.758322,459.12091 50.767123,459.07296 50.767415,459.03435 50.777611,458.99542 50.800067,458.98073 50.876346,458.96286 50.901042,458.94921 50.915731,458.93107 50.926144,458.90011 50.926505,458.88580 50.877662,458.82862 50.865451,458.78509 50.868605,458.76076 50.886263,458.74904 50.892534,458.74798 50.928448,458.74188 50.929898,458.74163 50.955109,458.74748 51.008080,458.75976 51.029864,458.76481 51.130324,458.80556 51.181356,458.81048 51.217951,458.79656 51.264772,458.76349 51.290136,458.73465 51.362583,458.66872 51.381650,458.65955 51.414777,458.65636 51.432143,458.65856 51.453517,458.67013 51.479729,458.72631 51.516401,458.76350 51.520454,458.76761 51.527391,458.77152 51.535835,458.77628 51.569448,458.79521 51.607385,458.79379 51.623501,458.78554 51.626273,458.78222 51.660114,458.74179 51.660610,458.74119 51.661083,458.73971 51.665742,458.72505 51.667805,458.71856 51.670190,458.68083 51.674812,458.66562 51.683268,458.64595 51.706496,458.59193 51.709677,458.58453 51.722580,458.57003 51.741816,458.56256 51.751344,458.55886 51.756489,458.55970 51.802114,458.56714 51.854765,458.59733 51.894753,458.61131 51.916390,458.61002 51.964058,458.58634 51.974533,458.58114 51.986373,458.58017 52.011346,458.57814 52.017276,458.57766 52.019558,458.57900 52.050533,458.59723 52.052547,458.59842 52.082585,458.62937 52.083198,458.63000 52.140421,458.65961 52.164542,458.66551 52.185255,458.65981 52.200066,458.64417 52.209894,458.62463 52.215180,458.60636 52.216640,458.57174 52.183917,458.46910 52.163911,458.44628 52.158754,458.40704 52.165148,458.37642 52.185415,458.33286 52.205997,458.30192 52.226635,458.28618 52.253899,458.27167 52.333292,458.26114 52.374432,458.23789 52.396002,458.20720 52.421537,458.12166 52.437819,458.08617 52.461481,458.06321 52.467345,458.05752 52.481244,458.04403 52.514004,458.01980 52.532413,458.00619 52.550951,457.99249 52.583179,457.95809 52.596807,457.91949 52.594799,457.89411 52.583898,457.88056 52.539501,457.84711 52.551911,457.84808"/>
	<polyline points="4.247047,465.89966 4.265047,466.18865 4.265861,466.20383"/>
	<polyline points="4.247047,465.89966 4.242789,465.83129 4.237746,465.75564 4.231819,465.66664 4.216004,465.41973"/>
	<polyline points="4.175205,464.78256 4.183898,464.91845 4.184698,464.93093 4.187316,464.97182 4.199375,465.16009 4.216004,465.41973"/>
	<polyline points="4.175205,464.78256 4.115235,463.84450 4.109252,463.76146 4.105114,463.70404 4.095409,463.55823 4.077773,463.28108 4.068628,463.13737 4.046618,462.80143 4.046134,462.78516 4.039581,462.68297 3.981145,461.77100 3.962332,461.47712 3.953290,461.33586 3.947311,461.21882 3.926232,460.89844"/>
	<polyline points="3.926232,460.89844 3.919053,460.78428 3.918610,460.77723 3.900146,460.48360 3.885787,460.24056"/>
	<polyline points="3.885787,460.24056 3.882342,460.18217 3.878037,460.11481"/>
	<polyline points="3.878037,460.11481 3.868842,459.97093 3.868575,459.97096 3.840065,459.55430 3.835426,459.47750 3.827371,459.35559 3.826785,459.34690"/>
	<polyline points="51.565076,444.19380 51.594912,444.18608 51.663141,444.15637 51.698960,444.14078 51.800428,444.11434 51.831106,444.11329 51.856655,444.11888 51.963933,444.21172 52.018349,444.24829 52.020268,444.24958 52.054147,444.26627 52.054999,444.26648 52.068725,444.26990 52.084600,444.27384 52.091069,444.27341 52.164696,444.26853 52.190248,444.27083 52.209816,444.27976 52.336756,444.39430 52.348280,444.41115 52.362656,444.44449 52.371041,444.48669 52.371732,444.53774 52.364843,444.56214 52.266447,444.71613 52.237388,444.75045 52.178534,444.78802 52.113761,444.81335 52.091569,444.83437 52.080456,444.85099 52.070563,444.87756 52.070546,444.87760 52.069308,444.88093 52.042126,444.97103 52.037528,444.98628 52.037442,444.98643 52.037442,444.98643 51.983651,445.08379 51.974820,445.10599 51.973429,445.10948 51.953662,445.15917 51.945519,445.16903 51.890504,445.21331 51.867515,445.23181 51.861571,445.23659 51.861200,445.23686 51.861133,445.23691 51.741401,445.32404 51.535309,445.42464 51.497816,445.45787 51.479121,445.46707 51.392247,445.50983 51.341276,445.55732 51.341275,445.55732 51.341122,445.55746 51.304393,445.64952 51.250073,445.76787 51.249994,445.76804 51.248919,445.77039 51.219873,445.85580 51.185878,445.93539 51.150073,446.00303 51.120105,446.05317 51.014560,446.16846 50.959258,446.22058 50.920984,446.25051 50.880172,446.27379 50.842829,446.27729 50.821531,446.27928 50.779033,446.29368 50.701659,446.35464 50.626141,446.42799 50.621735,446.43227 50.568178,446.47329 50.512079,446.52763 50.483132,446.56998 50.477519,446.57819 50.466344,446.63110 50.464212,446.66110 50.458480,446.74181 50.435369,446.82461 50.402742,446.92142 50.393064,446.95014 50.305541,447.16279 50.292709,447.18599 50.257999,447.21299 50.176442,447.25085 50.158426,447.25922 50.146500,447.26475 50.132219,447.27503 50.127365,447.27852 50.123316,447.28144 50.094470,447.31262 50.094173,447.31294 50.030731,447.33243 50.011446,447.32761 49.971567,447.30272 49.853873,447.26708 49.789771,447.25396 49.759734,447.25872 49.748018,447.26410 49.724018,447.27512 49.689310,447.29106 49.683034,447.29612 49.646603,447.32546 49.634564,447.34443 49.605713,447.36873 49.536876,447.39001 49.524034,447.39398 49.519111,447.39867 49.506423,447.41077 49.500752,447.41617 49.491733,447.43758 49.488689,447.44481 49.484836,447.45396 49.478384,447.46928 49.477684,447.47607 49.466302,447.58650 49.428244,447.75211 49.401652,447.82809 49.401663,447.84122 49.419651,447.90309 49.424561,447.91998 49.429428,447.93671 49.428824,447.94056 49.423117,447.97695 49.425476,448.02411 49.454745,448.06812 49.472581,448.11911 49.475078,448.17429 49.475005,448.17546 49.471424,448.23342 49.468143,448.25275 49.446938,448.37767 49.440837,448.44466 49.442164,448.54210 49.448682,448.61594 49.437656,448.73122 49.430441,448.76510 49.418963,448.79441 49.335291,448.86192 49.287204,448.92109 49.189873,449.04087 49.150764,449.07876 49.061263,449.11062 49.007221,449.13888 48.842586,449.16705 48.837141,449.16642 48.819674,449.16441 48.798921,449.16202 48.788818,449.15689 48.772020,449.14836 48.752652,449.13853 48.743599,449.13012 48.733588,449.12083 48.658728,449.05138 48.656155,449.05048 48.621245,449.03826 48.591569,449.03843 48.587053,449.03845 48.572672,449.03854 48.554988,449.04164 48.522065,449.04742 48.515991,449.04849 48.503853,449.05330 48.459991,449.07070 48.449644,449.07481 48.442094,449.08050 48.430053,449.08958 48.419337,449.09766 48.415024,449.10256 48.398795,449.12103 48.371926,449.15161 48.357636,449.17383 48.350720,449.19977 48.348682,449.21196 48.352613,449.23694 48.357226,449.24458 48.377233,449.27771 48.380621,449.28332 48.381267,449.28439 48.385398,449.29123 48.390983,449.33030 48.389076,449.34491 48.386907,449.36153 48.373131,449.46706 48.342504,449.51278 48.335104,449.53269 48.320829,449.56504 48.296808,449.59991 48.292948,449.62833 48.302316,449.64128 48.326168,449.65206 48.387083,449.65884 48.399029,449.67587 48.405058,449.71066 48.384404,449.85882 48.374182,449.89028 48.363936,449.90665 48.305068,449.95811 48.305262,449.98386 48.337333,450.04932 48.379909,450.11443 48.386732,450.12487 48.411392,450.14560 48.454751,450.16920 48.455261,450.16947 48.464678,450.18496 48.485353,450.21896 48.499911,450.24290 48.505414,450.27528 48.505796,450.27752 48.505135,450.27977 48.500468,450.29565 48.499215,450.29991 48.497245,450.30134 48.475833,450.31683 48.474094,450.31809 48.459800,450.32101 48.444569,450.32412 48.440711,450.32491 48.392579,450.31885 48.392465,450.31884 48.389451,450.31846 48.335921,450.33989 48.302225,450.38658 48.285604,450.43055 48.277030,450.45323 48.289731,450.49714 48.321312,450.60632 48.344871,450.66868 48.357851,450.70303 48.360281,450.70630 48.366367,450.71447 48.373167,450.72360 48.400245,450.74681 48.426062,450.81335 48.427635,450.81651 48.430904,450.82308 48.458899,450.87935 48.462449,450.89710 48.456418,450.92074 48.436408,450.95285 48.435834,450.95377 48.431374,450.96093 48.428153,450.96458 48.397225,450.99961 48.350781,451.05222 48.342583,451.07071 48.338131,451.10357 48.340938,451.12060 48.347894,451.12867 48.381028,451.16712 48.455045,451.20596 48.488840,451.23422 48.502085,451.26003 48.507435,451.30993 48.517951,451.35655 48.529569,451.37802 48.537187,451.39209 48.552090,451.41000 48.569523,451.41804 48.603895,451.41729 48.619079,451.41696 48.644929,451.40832 48.739442,451.37675 48.826103,451.36355 48.865819,451.36527 48.875083,451.36924 48.890624,451.38949 48.917902,451.44108 48.937991,451.47908 48.961482,451.50925 48.996180,451.52822 48.999725,451.53016 49.014219,451.53809 49.019673,451.53879 49.060621,451.54409 49.084581,451.55736 49.149697,451.65389 49.154126,451.66920 49.155094,451.68944 49.150284,451.71707 49.154207,451.74026 49.171093,451.77030 49.189098,451.79165 49.236616,451.83269 49.279954,451.89989 49.292275,451.92762 49.293172,451.96300 49.293180,451.96333 49.293213,451.96463 49.278945,451.98995 49.199578,452.06795 49.182187,452.09276 49.177435,452.11087 49.177343,452.13391 49.180440,452.15200 49.192583,452.17873 49.233255,452.20205 49.353615,452.20954 49.380074,452.19913 49.402937,452.18192 49.443535,452.18408 49.457754,452.19236 49.490133,452.24429 49.550842,452.32065 49.566110,452.37170 49.569968,452.38461 49.571585,452.41130 49.565961,452.43525 49.559371,452.44910 49.547817,452.47339 49.505791,452.51773 49.476389,452.56921 49.458406,452.59370 49.448707,452.60691 49.377310,452.67909 49.365367,452.70115 49.360184,452.71816 49.366704,452.76766 49.359156,452.84413 49.351908,452.87565 49.346824,452.88724 49.332385,452.92018 49.266176,452.97544 49.195692,453.03427 49.177250,453.06234 49.156466,453.09619 49.111673,453.16915 49.106424,453.20665 49.059993,453.30039 49.008884,453.35498 48.999340,453.39205 48.991097,453.45073 48.987553,453.46166 48.984764,453.47718 48.992206,453.50472 48.986638,453.52462 48.968425,453.54518 48.913959,453.53219 48.894696,453.53556 48.874396,453.55441 48.859755,453.58589 48.859849,453.61983 48.880391,453.65660 48.888676,453.68308 48.893560,453.70914 48.892939,453.74948 48.892878,453.75339 48.893918,453.75626 48.899203,453.77085 48.901697,453.77773 48.914775,453.79230 48.922026,453.80038 48.930165,453.80945 48.961933,453.83356 49.069910,453.90053 49.082392,453.92192 49.153335,453.95085 49.163454,453.95646 49.188924,453.97057 49.196467,453.97476 49.221405,454.00249 49.233385,454.01581 49.240615,454.02386 49.245044,454.03769 49.318102,454.06302 49.369410,454.06619 49.406982,454.08269 49.628832,454.21135 49.658140,454.22837 49.710045,454.28386 49.741950,454.30230 49.783342,454.31772 49.786261,454.32776 49.778323,454.36916 49.783994,454.39183 49.838772,454.46382 49.855139,454.49183 49.866674,454.52201 49.871687,454.55537 49.894390,454.61160 49.906465,454.62537 49.946432,454.62564 50.003217,454.69664 50.043287,454.72565 50.089613,454.74521 50.146245,454.75467 50.243689,454.82260 50.265500,454.85040 50.278436,454.90953 50.279167,454.91288 50.278142,454.91652 50.273238,454.93399 50.256691,454.94228 50.234841,454.93660 50.207452,454.92008 50.202959,454.91592 50.156938,454.87332 50.137655,454.86365 50.127814,454.85872 50.098578,454.85514 50.075481,454.85910 50.068744,454.86525 50.069556,454.90024 50.149355,455.07741 50.168988,455.10159 50.227382,455.13382 50.257646,455.13983 50.282951,455.13761 50.299774,455.14393 50.437249,455.24755 50.442095,455.25732 50.438893,455.27788 50.461093,455.30854 50.577946,455.35677 50.644809,455.40966 50.794934,455.60432 50.824027,455.66791 50.829097,455.69540 50.841408,455.72107 50.927517,455.80351 50.986963,455.88185 50.987244,455.88221 50.988515,455.88389 51.018999,455.95794 51.020773,455.99108 51.056208,456.08053 51.112608,456.19400 51.170207,456.29069 51.176599,456.30872 51.179163,456.32460 51.166441,456.34467 51.116056,456.39506 51.111296,456.40510 51.121472,456.45354 51.156012,456.51441 51.159051,456.55845 51.196850,456.64067 51.206448,456.65311 51.217616,456.65776 51.265208,456.66542 51.282384,456.68906 51.291140,456.70714 51.298217,456.74167 51.285791,456.78074 51.286286,456.78610 51.286909,456.79286 51.287328,456.79740 51.330575,456.88523 51.344171,456.92649 51.349103,456.94146 51.349552,456.94282 51.353654,456.95528 51.389576,456.99781 51.423025,457.06547 51.491311,457.13930 51.543008,457.16508 51.573686,457.18741 51.616889,457.24298 51.736403,457.32618 51.741122,457.33742 51.737826,457.36460 51.711627,457.40903 51.711377,457.40946 51.708875,457.41370 51.715371,457.43470 51.739788,457.45760 51.744783,457.45940 51.746118,457.45988 51.752746,457.46227 51.765049,457.46671 51.780840,457.46938 51.813613,457.47494 51.827881,457.47736 51.859013,457.47805 51.883924,457.47861 51.888818,457.48011 51.903267,457.48453 51.911511,457.48705 51.922341,457.49737 51.952196,457.52580 51.979009,457.55930 52.005300,457.65659 52.041584,457.70808 52.055295,457.71592 52.064404,457.72113 52.083619,457.72176 52.211775,457.72598 52.255706,457.72017 52.334715,457.73596 52.438327,457.79567 52.472450,457.81031 52.504501,457.81607 52.551911,457.84808"/>
	<polyline points="3.826785,459.34690 3.812186,459.13026 3.811765,459.12365 3.811852,459.11817 3.811427,459.11150 3.811274,459.11149 3.810195,459.09061 3.810174,459.09029 3.809333,459.07711 3.807721,459.04974 3.793914,458.81543"/>
	<polyline points="3.793914,458.81543 3.791830,458.73862 3.763784,458.32540 3.763706,458.32379"/>
	<polyline points="3.739356,457.92830 3.747701,458.04262 3.752565,458.10924 3.762422,458.29041 3.763706,458.32379"/>
	<polyline points="3.739356,457.92830 3.735889,457.87387 3.730723,457.79278 3.730016,457.78167 3.729690,457.77614"/>
	<polyline points="3.729690,457.77614 3.723367,457.66896"/>
	<polyline points="3.706347,457.42547 3.723367,457.66896"/>
	<polyline points="3.686724,457.13298 3.693872,457.24691 3.706347,457.42547"/>
	<polyline points="3.666933,456.82637 3.675972,456.96160 3.686724,457.13298"/>
	<polyline points="3.662381,456.73424 3.662423,456.73490 3.666933,456.82637"/>
	<polyline points="3.662381,456.73424 3.662011,456.73427 3.656124,456.63316 3.646968,456.51552 3.644330,456.46506 3.637441,456.35218 3.631420,456.25682 3.627189,456.17835 3.625297,456.14336 3.624923,456.13322 3.618688,456.03886 3.618019,456.02873 3.611355,455.92286"/>
	<polyline points="3.611355,455.92286 3.595988,455.67862 3.585766,455.51597 3.571204,455.29448 3.569778,455.27236"/>
	<polyline points="3.569778,455.27236 3.550637,454.97526 3.541143,454.82790 3.539199,454.79769 3.534396,454.72302 3.532823,454.69857 3.525677,454.58748 3.518295,454.47272 3.518009,454.46827 3.508721,454.38041 3.501145,454.30874 3.498603,454.25817"/>
	<polyline points="3.497432,454.23310 3.497848,454.24315 3.498603,454.25817"/>
	<polyline points="3.497432,454.23310 3.488169,453.98482 3.469626,453.69373 3.468732,453.67969"/>
	<polyline points="3.468732,453.67969 3.467575,453.66955 3.434686,453.13702 3.427867,453.03794 3.425645,453.00258 3.420130,452.91467 3.415628,452.84292 3.412363,452.79087 3.389093,452.41997 3.355609,451.88592 3.320969,451.33285"/>
	<polyline points="3.320969,451.33285 3.319997,451.31780 3.304898,451.08394 3.304496,451.08390 3.286185,450.79260 3.286456,450.79272 3.264887,450.44971 3.236017,449.99015 3.236043,449.99015 3.208267,449.53959 3.207930,449.53413 3.205736,449.49853 3.208608,449.38701 3.208608,449.38700 3.208958,449.37343 3.162150,448.66713"/>
	<polyline points="2.986715,446.01073 2.996175,446.15590 2.996193,446.15620 3.012097,446.41103 3.046742,446.96554 3.071761,447.36574 3.095911,447.75166 3.113787,448.03712 3.115288,448.05313 3.119864,448.10196 3.139797,448.31466 3.140662,448.32389 3.162150,448.66713"/>
	<polyline points="2.986715,446.01073 2.976208,445.83841 2.948703,445.38677 2.931518,445.10443 2.930356,445.09237 2.928180,445.05817 2.923935,444.99148 2.906673,444.72019 2.887833,444.42373 2.887557,444.41938"/>
	<polyline points="51.565076,444.19380 51.542074,444.19264 51.513975,444.18371 51.483363,444.15257 51.462131,444.11257 51.452150,444.08702 51.447696,444.07562 51.444394,444.06716 51.424818,444.01705 51.413468,443.96648 51.405377,443.93044 51.380721,443.89709 51.334757,443.86148 51.308926,443.84919 51.303888,443.84680 51.298851,443.84440 51.292692,443.84147 51.269176,443.83028 51.259181,443.82316 51.259165,443.82314 51.259149,443.82313 51.241071,443.81025 51.225089,443.79235 51.223202,443.79023 51.208754,443.76246 51.195183,443.71915 51.185825,443.70581 51.161127,443.68911 51.021356,443.65115 50.956591,443.61780 50.775883,443.55548 50.751158,443.55213 50.675253,443.56538 50.642402,443.56155 50.640788,443.56136 50.636885,443.56091 50.578067,443.53534 50.566664,443.52900 50.474060,443.47753 50.452238,443.46392 50.284633,443.35936 50.215696,443.31643 50.157668,443.26719 50.137233,443.24985 50.117541,443.22679 50.108075,443.21571 50.086047,443.18992 49.980882,443.08201 49.932469,443.03234 49.905152,443.01236 49.894973,443.00695 49.891215,443.00495 49.867602,442.99239 49.751951,442.95134 49.675947,442.92436 49.673489,442.92349 49.664464,442.92029 49.650581,442.91068 49.638664,442.90243 49.637053,442.90132 49.598725,442.87479 49.562842,442.82596 49.553851,442.80800 49.496178,442.69278 49.433171,442.61793 49.423598,442.60656 49.407584,442.58754 49.385091,442.56083 49.243286,442.50106 49.199727,442.49224 49.076700,442.44688 49.075061,442.44594 49.075051,442.44593 49.038672,442.42512 48.981828,442.39260 48.928684,442.35414 48.916000,442.34496 48.899645,442.32906 48.895382,442.32492 48.888631,442.31835 48.859520,442.27066 48.843984,442.20413 48.843187,442.20072 48.840605,442.18966 48.840188,442.17290 48.839596,442.14904 48.838803,442.11716 48.836964,442.04316 48.838875,442.02809 48.843500,441.99161 48.846252,441.96990 48.851433,441.95237 48.864566,441.90794 48.864957,441.90661 48.876460,441.88107 48.887956,441.85554 48.893546,441.83830 48.898389,441.82336 48.906675,441.79780 48.892073,441.72254 48.881701,441.66909 48.859408,441.62472 48.838250,441.59250 48.801128,441.53599 48.782286,441.51604 48.756596,441.49165 48.711251,441.47506 48.507582,441.46977 48.435035,441.46789 48.418534,441.46351 48.418532,441.46351 48.381135,441.45358 48.329732,441.41263 48.200310,441.28972 48.109520,441.23665 47.989635,441.18697 47.917679,441.16475 47.680318,441.10828 47.675895,441.10812 47.542449,441.10343 47.527278,441.10290 47.490235,441.10159 47.438973,441.10746 47.420195,441.10961 47.350862,441.11755 47.292151,441.11568 47.285233,441.11546 47.274991,441.11513 47.234864,441.11386 47.173229,441.10518 47.078732,441.07386 47.076162,441.07301 47.065231,441.06616 47.002781,441.02699 46.967797,441.00505 46.955224,440.99364 46.955185,440.99360 46.852292,440.90020 46.819056,440.87003 46.818057,440.86912 46.791864,440.84697 46.790365,440.84570 46.758312,440.81860 46.726638,440.79181 46.657428,440.73329 46.589386,440.68163 46.577565,440.67265 46.544051,440.64721 46.531793,440.63923 46.446994,440.58407"/>
	<polyline points="2.887557,444.41938 2.850225,443.83038 2.849472,443.81976 2.847513,443.78609 2.845860,443.75557 2.834346,443.56160 2.831679,443.53700 2.803043,443.02581 2.783089,442.72704 2.775671,442.61594 2.740177,442.08432 2.730340,441.92331 2.682664,441.14257"/>
	<polyline points="46.446994,440.58407 46.336126,440.66697 46.260575,440.70978 46.144026,440.77585 46.116749,440.79132 46.112560,440.79333 46.066700,440.81530 46.034782,440.83060 45.950553,440.86346 45.881903,440.89024 45.783604,440.92124 45.731547,440.93766 45.564019,440.97183 45.385300,440.99402 45.373670,440.99448 45.265656,440.99876 45.119106,441.00455 45.038773,440.99972 44.920474,440.98859 44.902570,440.98538 44.718410,440.95154 44.568751,440.91008"/>
	<polyline points="44.568751,440.91008 44.510316,440.89052 44.327416,440.81181 44.177414,440.72851"/>
	<polyline points="44.177414,440.72851 44.154484,440.71578 44.128269,440.70122 44.116308,440.69275 43.997283,440.60842 43.861417,440.49176 43.844360,440.47478 43.840276,440.47071 43.829309,440.45979 43.774403,440.40512 43.745377,440.37233 43.713903,440.33677 43.692805,440.31294 43.656411,440.26658 43.653038,440.26229 43.624378,440.22578 43.603721,440.19479 43.567922,440.14109 43.549149,440.11294 43.536941,440.09079 43.536893,440.09070 43.485808,439.99803 43.435976,439.89390 43.425776,439.86746 43.379493,439.74750 43.370235,439.72352 43.243323,439.71792"/>
	<polyline points="16.303405,440.43833 16.440139,440.43260 16.987467,440.40969 17.356395,440.39462 17.542703,440.38701 17.663297,440.38208 17.974725,440.36958 18.083876,440.36523 18.422585,440.34974 18.671109,440.33850 19.144403,440.31734 19.223765,440.31380 19.349431,440.30818 19.602294,440.30164 19.643850,440.29765 19.676828,440.29449 20.061490,440.28180 20.195452,440.27744 20.330968,440.27311 20.411887,440.26820 20.524412,440.26137 21.024294,440.24267 21.350198,440.23075"/>
	<polyline points="16.303405,440.43833 15.322809,440.48320 15.227367,440.48703 14.963661,440.49764 13.942880,440.53935 13.533486,440.55651 12.346332,440.60738 11.625109,440.63923"/>
	<polyline points="21.350198,440.23075 21.367522,440.22982 21.375760,440.22994 21.396537,440.22815 21.451465,440.22863 21.873129,440.21236 21.980348,440.20830 21.980956,440.20802 22.202480,440.19876 22.226225,440.19809 22.533866,440.18718 22.547156,440.18555 22.778379,440.17712 23.166158,440.16299 23.438012,440.15321 23.636921,440.14616 23.654371,440.14571 24.324442,440.12257 24.812764,440.10605 24.823397,440.10569 25.120156,440.09588 25.360427,440.08800 25.437986,440.08469 25.593543,440.07805 25.676526,440.07451 26.085649,440.05745 26.152306,440.05467 26.270390,440.04976 26.390351,440.04508"/>
	<polyline points="43.243323,439.71792 43.147305,439.71952 43.057272,439.72063 43.044621,439.72072 42.784975,439.72258 41.754764,439.73059 41.591975,439.73193 41.440961,439.73328 41.317431,439.73852 41.192707,439.73899 40.268369,439.74707 40.111983,439.74851 40.108839,439.74854 39.429960,439.75535"/>
	<polyline points="9.162735,440.76301 8.398300,440.80342 8.396354,440.80352 8.374323,440.80479 8.359945,440.80562 7.855724,440.83509 7.221717,440.87254 6.777532,440.89908 6.602525,440.90958 6.485759,440.91668 5.641555,440.96476 5.041775,440.99941 4.670485,441.02124 4.489803,441.03186 4.482878,441.03206 3.715078,441.07738 3.522742,441.08879"/>
	<polyline points="38.487976,439.76883 38.540261,439.76807 38.580547,439.76748 39.166538,439.75893 39.372238,439.75613 39.429960,439.75535"/>
	<polyline points="36.549108,439.79925 36.708386,439.79683 36.920195,439.79374 36.997416,439.79264 37.213408,439.78904 37.477405,439.78417 37.665115,439.78079 37.839963,439.77775 37.840837,439.77884 37.961705,439.77627"/>
	<polyline points="2.682664,441.14257 3.174530,441.11105 3.236015,441.10711 3.256927,441.10577 3.522742,441.08879"/>
	<polyline points="37.961705,439.77627 38.038820,439.77464 38.167403,439.77374 38.171688,439.77367 38.487976,439.76883"/>
	<polyline points="34.682986,439.82974 34.934221,439.82615 35.295930,439.82106 35.327643,439.82046 35.411600,439.81897 35.557296,439.81637 35.793583,439.81216 35.820298,439.81168 36.007549,439.80835 36.209822,439.80495 36.549108,439.79925"/>
	<polyline points="9.162735,440.76301 9.380516,440.75236 9.534687,440.74481 9.616190,440.74082 10.476414,440.69941 10.496944,440.69733 10.579800,440.69235 10.636277,440.68898 11.009193,440.66698 11.221463,440.65734 11.625109,440.63923"/>
	<polyline points="26.390351,440.04508 26.487478,440.04130 26.578213,440.03733 26.651010,440.03292"/>
	<polyline points="26.651010,440.03292 27.076125,440.01960 27.095587,440.01825 27.118763,440.01741 27.669335,439.99789 28.199933,439.97938 28.273995,439.97685 28.285895,439.97686 28.600886,439.96710 28.836410,439.95980"/>
	<polyline points="34.682986,439.82974 34.567975,439.83047 34.517514,439.83079 34.493536,439.83238 33.877021,439.84215 33.800007,439.84338 33.736012,439.84471 33.401493,439.85523 33.075818,439.85535 32.935817,439.85540 32.861254,439.85737 32.485101,439.86767 32.454126,439.86852 32.359031,439.87292 32.353005,439.87195 31.539431,439.89038 31.431306,439.89288 30.999469,439.90309"/>
	<polyline points="28.836410,439.95980 28.919726,439.95751 29.495858,439.94189 29.583212,439.93952 29.602253,439.93900 29.668693,439.93721 29.745348,439.93521 29.758726,439.93486 29.758726,439.93486 29.758726,439.93486 29.853579,439.93239 30.113976,439.92560 30.772304,439.90876"/>
	<polyline points="30.772304,439.90876 30.802306,439.90801 30.995387,439.90319"/>
	<polyline points="30.995387,439.90319 30.999469,439.90309"/>
</g>
</g>
</svg>
