<svg
   xmlns:dc="http://purl.org/dc/elements/1.1/"
   xmlns:cc="http://creativecommons.org/ns#"
   xmlns:rdf="http://www.w3.org/1999/02/22-rdf-syntax-ns#"
   xmlns:svg="http://www.w3.org/2000/svg"
   xmlns="http://www.w3.org/2000/svg"
   xmlns:sodipodi="http://sodipodi.sourceforge.net/DTD/sodipodi-0.dtd"
   xmlns:inkscape="http://www.inkscape.org/namespaces/inkscape"
   version="1.0"
   width="263.52502"
   height="364.129"
   id="svg2275"
   sodipodi:version="0.32"
   inkscape:version="0.46"
   sodipodi:docname="BlankMap-USA-Northeast.svg"
   sodipodi:docbase="C:\Users\Adam\Desktop"
   inkscape:output_extension="org.inkscape.output.svg.inkscape">
  <metadata
     id="metadata2625">
    <rdf:RDF>
      <cc:Work
         rdf:about="">
        <dc:format>image/svg+xml</dc:format>
        <dc:type
           rdf:resource="http://purl.org/dc/dcmitype/StillImage" />
      </cc:Work>
    </rdf:RDF>
  </metadata>
  <defs
     id="defs2623">
    <inkscape:perspective
       sodipodi:type="inkscape:persp3d"
       inkscape:vp_x="0 : 296.39499 : 1"
       inkscape:vp_y="0 : 1000 : 0"
       inkscape:vp_z="958.69 : 296.39499 : 1"
       inkscape:persp3d-origin="479.345 : 197.59666 : 1"
       id="perspective5515" />
  </defs>
  <sodipodi:namedview
     inkscape:window-height="721"
     inkscape:window-width="1024"
     inkscape:pageshadow="2"
     inkscape:pageopacity="0.0"
     guidetolerance="10.0"
     gridtolerance="10.0"
     objecttolerance="10.0"
     borderopacity="1.0"
     bordercolor="#666666"
     pagecolor="#ffffff"
     id="base"
     inkscape:zoom="0.85696456"
     inkscape:cx="469.27999"
     inkscape:cy="203.04224"
     inkscape:window-x="-4"
     inkscape:window-y="-4"
     inkscape:current-layer="svg2275"
     showgrid="false" />
  <path
     style="fill:#cccccc"
     id="RI"
     d="M 194.99886,183.28125 L 194.50563,178.90996 L 193.68014,174.37184 L 191.94661,168.23699 L 197.80761,166.64025 L 199.4586,167.81679 L 202.92568,172.35491 L 205.8964,176.9777 L 202.92355,178.57509 L 201.60277,178.40701 L 200.44708,180.25587 L 197.9706,182.27281 L 194.99886,183.28125 z" />
  <path
     style="fill:#cccccc"
     id="CT"
     d="M 195.49416,183.28125 L 194.50563,178.90996 L 193.68014,174.37184 L 192.02916,168.15295 L 186.74599,169.32949 L 164.45765,174.2878 L 165.11804,177.73341 L 166.60393,185.29694 L 166.60393,193.70085 L 165.44824,196.05395 L 167.31961,198.24679 L 172.38034,194.71057 L 176.0125,191.34901 L 177.99369,189.164 L 178.81918,189.83631 L 181.62585,188.32361 L 186.909,187.14707 L 195.49416,183.28125 z" />
  <path
     style="fill:#cccccc"
     id="MA"
     d="M 221.45685,177.07194 L 223.67496,176.35884 L 224.14194,174.57611 L 225.19262,174.69495 L 226.2433,177.07194 L 224.95913,177.54734 L 220.98988,177.66619 L 221.45685,177.07194 z M 211.88396,177.90389 L 214.2188,175.17035 L 215.85321,175.17035 L 217.72109,176.71539 L 215.2695,177.78503 L 213.05139,178.85468 L 211.88396,177.90389 z M 176.34476,155.04284 L 194.17544,150.6728 L 196.48683,150.00049 L 198.63311,146.63893 L 202.44935,144.90959 L 205.40003,149.49761 L 202.92355,154.8761 L 202.59336,156.38881 L 204.57454,159.07805 L 205.73023,158.23766 L 207.54631,158.23766 L 209.85769,160.92691 L 213.82005,167.14579 L 217.45222,167.65003 L 219.7636,166.64156 L 221.57968,164.7927 L 220.75419,161.93538 L 218.60791,160.2546 L 217.12202,161.09499 L 216.13143,159.75036 L 216.62673,159.24613 L 218.77301,159.07805 L 220.58909,159.91844 L 222.57027,162.43961 L 223.56086,165.46501 L 223.89106,167.98618 L 219.5985,169.49888 L 215.63614,171.51582 L 211.67377,176.222 L 209.69259,177.7347 L 209.69259,176.72623 L 212.16907,175.21353 L 212.66436,173.36468 L 211.83887,170.1712 L 208.8671,171.6839 L 208.04161,173.1966 L 208.5369,175.54969 L 205.73131,177.06174 L 202.92568,172.35491 L 199.4586,167.81679 L 197.80761,166.64025 L 191.94661,168.23699 L 186.74599,169.32949 L 164.45765,174.2878 L 163.46706,168.32103 L 164.12745,157.31191 L 169.41061,156.38747 L 176.34476,155.04284" />
  <path
     style="fill:#cccccc"
     id="ME"
     d="M 245.18876,76.719868 L 247.16994,78.904881 L 249.48132,82.770674 L 249.48132,84.787609 L 247.33504,89.661868 L 245.35386,90.33418 L 241.88679,93.527661 L 236.93384,99.24231 C 236.93384,99.24231 236.27344,99.24231 235.61305,99.24231 C 234.95266,99.24231 234.62246,97.057297 234.62246,97.057297 L 232.80638,97.225375 L 231.81579,98.738076 L 229.33931,100.25078 L 228.34872,101.76348 L 229.9997,103.27618 L 229.50441,103.94849 L 229.00911,106.80582 L 227.02793,106.63774 L 227.02793,104.95696 L 226.69773,103.61234 L 225.21185,103.94849 L 223.39576,100.58694 L 221.24948,101.93156 L 222.57027,103.44426 L 222.90047,104.62081 L 222.07498,105.96543 L 222.40517,109.15891 L 222.57027,110.83969 L 220.91929,113.52894 L 217.94751,114.03317 L 217.61732,117.05857 L 212.16907,120.25205 L 210.84828,120.75629 L 209.1973,119.24358 L 206.06042,122.9413 L 207.05102,126.30286 L 205.56513,127.64748 L 205.40003,132.18558 L 203.7893,140.10917 L 201.27469,138.90732 L 200.77939,135.71383 L 196.81702,134.53729 L 196.48683,131.67995 L 189.05737,107.3086 L 184.19006,91.947599 L 186.6838,91.588789 L 188.22979,92.014959 L 188.22979,89.325713 L 189.05528,83.611063 L 191.69686,78.736804 L 193.18274,74.534855 L 191.20156,72.013687 L 191.20156,65.794804 L 192.02705,64.786336 L 192.85255,61.929011 L 192.68745,60.41631 L 192.52235,55.373972 L 194.33843,50.331635 L 197.31021,41.087349 L 199.45649,36.717323 L 200.77727,36.717323 L 202.09806,36.885401 L 202.09806,38.061946 L 203.41885,40.415037 L 206.22552,41.087349 L 207.05102,40.246959 L 207.05102,39.238492 L 211.17848,36.213089 L 212.99456,34.364232 L 214.48045,34.53231 L 220.58909,37.053479 L 222.57027,38.061946 L 231.81579,69.156362 L 237.92443,69.156362 L 238.74992,71.173297 L 238.91502,76.215635 L 241.88679,78.568726 L 242.71228,78.568726 L 242.87738,78.064492 L 242.38209,76.887946 L 245.18876,76.719868 z M 223.81185,108.06417 L 225.3803,106.46743 L 226.78364,107.55994 L 227.36149,110.08112 L 225.62795,111.00555 L 223.81185,108.06417 z M 230.66347,101.92931 L 232.47955,103.86221 C 232.47955,103.86221 233.80035,103.94625 233.80035,103.61009 C 233.80035,103.27393 234.04799,101.50911 234.04799,101.50911 L 234.95604,100.66872 L 234.13055,98.819851 L 232.06681,99.576207 L 230.66347,101.92931 z" />
  <path
     style="fill:#cccccc"
     id="NH"
     d="M 202.45041,144.86988 L 202.75846,143.27873 L 203.87186,139.85706 L 201.27469,138.90732 L 200.77939,135.71383 L 196.81702,134.53729 L 196.48683,131.67995 L 189.05737,107.3086 L 184.3581,92.188297 L 183.44193,92.183037 L 182.78154,93.863817 L 182.12115,93.359583 L 181.13056,92.351115 L 179.64467,94.36805 L 178.66807,100.07178 L 178.98635,105.96398 L 180.96753,108.82131 L 180.96753,113.02327 L 177.17025,117.22522 L 174.52868,118.40178 L 174.52868,119.57832 L 175.68437,121.42718 L 175.68437,130.33533 L 174.85887,139.91579 L 174.69378,144.95814 L 175.68437,146.30277 L 175.51927,151.00896 L 175.02397,152.85782 L 176.50986,154.95879 L 194.17544,150.6728 L 196.48683,150.00049 L 198.63311,146.63893 L 202.45041,144.86988 z" />
  <path
     style="fill:#cccccc"
     id="VT"
     d="M 164.29255,157.56402 L 163.46706,151.68128 L 160.33018,140.25195 L 159.66978,139.91579 L 156.698,138.57117 L 157.52349,135.54576 L 156.698,133.36074 L 154.05643,128.65455 L 155.04702,124.62067 L 154.22152,119.24216 L 151.74504,112.51903 L 150.92233,107.40111 L 178.65511,99.91389 L 178.98635,105.96398 L 180.96753,108.82131 L 180.96753,113.02327 L 177.17025,117.22522 L 174.52868,118.40178 L 174.52868,119.57832 L 175.68437,121.42718 L 175.68437,130.33533 L 174.85887,139.91579 L 174.69378,144.95814 L 175.68437,146.30277 L 175.51927,151.00896 L 175.02397,152.85782 L 176.50986,154.95879 L 169.41061,156.38747 L 164.29255,157.56402 z" />
  <path
     style="fill:#cccccc"
     id="NY"
     d="M 148.11286,194.20508 L 146.95717,193.19661 L 144.31558,193.02853 L 142.00421,191.0116 L 139.52772,185.46502 L 136.45924,184.49734 L 134.07946,182.27153 L 115.09309,186.47348 L 71.176797,195.54971 L 62.096367,197.06241 L 61.342507,189.86539 L 64.075737,187.98745 L 65.396527,186.81091 L 66.387117,185.13013 L 68.203197,183.95358 L 70.184377,182.10473 L 70.679677,180.42395 L 72.825957,177.56662 L 73.981647,176.55816 L 73.816547,175.54969 L 72.495757,172.35621 L 70.679677,172.18813 L 68.698497,165.80117 L 71.670267,163.95231 L 76.127927,162.43961 L 80.255387,161.09499 L 83.557357,160.59075 L 89.996197,160.42268 L 91.977377,161.7673 L 93.628367,161.93538 L 95.774647,160.59075 L 98.416217,159.41421 L 103.69937,158.90997 L 105.84565,157.06112 L 107.66174,153.69956 L 109.31272,151.68262 L 111.459,151.68262 L 113.44018,150.50608 L 113.60528,148.15299 L 112.1194,145.96797 L 111.7892,144.45527 L 112.94489,142.27026 L 112.94489,140.75756 L 111.12881,140.75756 L 109.31272,139.91717 L 108.48723,138.74062 L 108.32213,136.05138 L 114.26568,130.33673 L 114.92607,129.49634 L 116.41196,126.47094 L 119.38373,121.76475 L 122.1904,117.89896 L 124.33668,115.37779 L 126.80314,113.47971 L 129.95003,112.18431 L 135.56338,110.83969 L 138.86535,111.00777 L 143.48811,109.49507 L 151.21419,107.34168 L 151.74504,112.51903 L 154.22152,119.24216 L 155.04702,124.62067 L 154.05643,128.65455 L 156.698,133.36074 L 157.52349,135.54576 L 156.698,138.57117 L 159.66978,139.91579 L 160.33018,140.25195 L 163.46706,151.68128 L 163.96235,157.05978 L 163.46706,168.32103 L 164.29255,174.03569 L 165.11804,177.73341 L 166.60393,185.29694 L 166.60393,193.70085 L 165.44824,196.05395 L 167.32669,198.12584 L 167.09719,199.75291 L 165.116,201.60177 L 165.4462,202.94639 L 166.76699,202.61023 L 168.25288,201.26561 L 170.56425,198.57636 L 171.71994,197.90405 L 173.37093,198.57636 L 175.68231,198.74444 L 183.77213,194.71057 L 186.7439,191.85325 L 188.06469,190.34055 L 192.35725,192.02132 L 188.89018,195.71904 L 184.92782,198.74444 L 177.66349,204.29101 L 175.02191,205.29948 L 169.07837,207.31642 L 164.95091,208.49296 L 163.40352,207.93888 L 162.80665,204.45786 L 163.30195,201.60053 L 163.13685,199.41552 L 160.49528,198.23896 L 155.87251,197.23049 L 151.91013,196.05395 L 148.11286,194.20508 z" />
  <path
     style="fill:#cccccc"
     id="NJ"
     d="M 148.11286,194.20508 L 145.96658,196.72626 L 145.96658,199.91975 L 143.98539,203.11323 L 143.82029,204.79402 L 145.14109,206.13864 L 144.97599,208.65982 L 142.6646,209.83637 L 143.49009,212.69369 L 143.65519,213.87025 L 146.46187,214.20641 L 147.45247,216.89565 L 151.08464,219.41683 L 153.56112,221.09761 L 153.56112,221.938 L 150.25915,225.13149 L 148.60815,227.48458 L 147.12227,230.34192 L 144.81089,231.68654 L 143.57265,232.4429 L 143.32499,233.70349 L 142.70281,236.41371 L 143.8183,238.74699 L 147.12027,241.77239 L 152.07323,244.12548 L 156.20069,244.79779 L 156.36579,246.31049 L 155.54029,247.31896 L 155.87049,250.17629 L 156.69598,250.17629 L 158.84226,247.65512 L 159.66775,242.61278 L 162.47443,238.41083 L 165.6113,231.68771 L 166.76699,225.97307 L 166.1066,224.79652 L 165.9415,215.048 L 164.29051,211.51836 L 163.13482,212.35875 L 160.32815,212.69491 L 159.83285,212.19068 L 160.98854,211.18221 L 163.13482,209.16527 L 163.19922,208.02802 L 162.80665,204.45786 L 163.30195,201.60053 L 163.13685,199.41552 L 160.49528,198.23896 L 155.87251,197.23049 L 151.91013,196.05395 L 148.11286,194.20508 z" />
  <path
     style="fill:#cccccc"
     id="PA"
     d="M 143.65519,232.35885 L 144.81089,231.68654 L 147.12227,230.34192 L 148.60815,227.48458 L 150.25915,225.13149 L 153.56112,221.938 L 153.56112,221.09761 L 151.08464,219.41683 L 147.45247,216.89565 L 146.46187,214.20641 L 143.65519,213.87025 L 143.49009,212.69369 L 142.6646,209.83637 L 144.97599,208.65982 L 145.14109,206.13864 L 143.82029,204.79402 L 143.98539,203.11323 L 145.96658,199.91975 L 145.96658,196.72626 L 148.36051,194.20509 L 146.95717,193.19661 L 144.31558,193.02853 L 142.00421,191.0116 L 139.52772,185.46502 L 136.45924,184.49734 L 134.07946,182.27153 L 115.09309,186.47348 L 71.176797,195.54971 L 62.096367,197.06241 L 61.590157,189.69731 L 55.985917,195.55096 L 54.665127,196.0552 L 50.373467,199.18353 L 53.346127,219.08068 L 55.069347,230.25808 L 58.717097,250.28419 L 63.446597,249.50322 L 75.644177,247.9411 L 114.37739,239.97162 L 129.56997,237.03622 L 138.04684,235.34946 L 139.36262,234.03964 L 141.50891,232.35885 L 143.65519,232.35885 z" />
  <path
     style="fill:#cccccc"
     id="DE"
     d="M 142.49751,235.88966 L 143.32499,233.70349 L 143.57265,232.35885 L 141.50891,232.35885 L 139.36262,234.03964 L 137.87673,235.55234 L 139.36262,239.92238 L 141.67401,245.80512 L 143.82029,255.88982 L 145.47128,262.44488 L 150.58935,262.2768 L 156.86208,261.01676 L 154.5497,253.36977 L 153.55911,253.874 L 149.92695,251.35283 L 148.11086,246.47857 L 146.12968,242.78086 L 143.8183,241.77239 L 141.67202,238.07468 L 142.49751,235.88966 z" />
  <path
     style="fill:#cccccc"
     id="MD"
     d="M 156.86108,260.93327 L 150.58935,262.2768 L 145.47128,262.44488 L 143.82029,255.88982 L 141.67401,245.80512 L 139.36262,239.92238 L 138.04684,235.34946 L 129.56997,237.03622 L 114.37739,239.97162 L 76.129477,247.82226 L 77.284837,253.03287 L 78.275437,258.9156 L 78.605627,258.57944 L 80.751917,256.05827 L 83.063297,252.86478 L 85.539777,252.6967 L 87.025677,251.184 L 88.841757,248.49475 L 90.162547,249.16707 L 93.134317,248.83091 L 95.775897,246.6459 L 97.825467,245.13494 L 99.709947,244.6307 L 101.38926,245.80551 L 104.36104,247.31821 L 106.34222,249.16707 L 107.58046,250.76381 L 111.79048,252.52862 L 111.79048,255.55404 L 117.40384,256.89866 L 119.38502,258.24328 L 120.37561,256.22635 L 122.687,257.90713 L 121.2011,261.2687 L 120.8709,264.12602 L 119.05482,266.81527 L 119.05482,269.00029 L 119.71521,270.84915 L 124.88686,272.25866 L 129.28964,272.19449 L 132.42651,273.20296 L 134.57279,273.53912 L 135.56338,271.3541 L 134.07749,269.16909 L 134.07749,267.32023 L 131.60102,265.13522 L 129.45474,259.42057 L 130.77552,253.874 L 130.61042,251.68899 L 129.28964,250.34436 C 129.28964,250.34436 130.77552,248.66358 130.77552,247.99127 C 130.77552,247.31896 131.27082,245.80626 131.27082,245.80626 L 133.252,244.46164 L 135.23318,242.78086 L 135.72848,243.78932 L 134.24259,245.4701 L 132.9218,249.3359 L 133.252,250.51244 L 135.06808,250.8486 L 135.56338,256.56325 L 133.4171,257.57171 L 133.7473,261.26943 L 134.24259,261.10135 L 135.39828,259.08442 L 137.04926,260.93327 L 135.39828,262.2779 L 135.06808,265.80753 L 137.70966,269.33717 L 141.67202,269.8414 L 143.32301,269.00101 L 146.62498,274.37951 L 148.44106,274.88374 L 148.44106,278.58145 L 146.12968,283.62379 L 145.63439,290.85114 L 147.12027,294.38078 L 148.60616,294.54886 L 150.58734,290.17883 L 151.41283,286.48112 L 151.57793,279.08569 L 154.7148,274.04335 L 156.86108,266.816 L 156.86108,260.93327 z M 140.10665,271.10033 L 141.26233,273.70554 L 141.42743,275.55441 L 142.58312,277.48731 C 142.58312,277.48731 143.49117,276.56287 143.49117,276.22672 C 143.49117,275.89056 142.74823,273.03323 142.74823,273.03323 L 142.00528,270.59608 L 140.10665,271.10033 z" />
  <path
     style="fill:#cccccc"
     id="WV"
     d="M 76.149187,247.89206 L 77.284837,253.03287 L 78.275437,258.9156 L 78.605627,258.57944 L 80.751917,256.05827 L 83.063297,252.86478 L 85.539777,252.6967 L 87.025677,251.184 L 88.841757,248.49475 L 90.162547,249.16707 L 93.134317,248.83091 L 95.775897,246.6459 L 97.825467,245.13494 L 99.709947,244.6307 L 101.38926,245.80551 L 104.36104,247.31821 L 106.34222,249.16707 L 107.74556,250.51169 L 106.67243,255.72212 L 100.89396,252.52862 L 96.271197,250.67977 L 96.106097,256.22635 L 95.610807,258.41136 L 93.959817,261.2687 L 93.299417,262.94948 L 90.162547,265.47065 L 89.667247,267.82375 L 86.200167,268.1599 L 85.869977,271.35338 L 84.714287,277.06804 L 82.072707,277.06804 L 80.751917,276.22765 L 79.100927,273.37032 L 77.284837,273.5384 L 76.954647,278.07651 L 74.808367,284.96772 L 69.690297,296.22896 L 70.515797,297.57358 L 70.350697,300.43091 L 68.204417,302.44784 L 66.718527,302.11169 L 63.416547,304.63287 L 60.774977,303.6244 L 58.958887,308.49866 C 58.958887,308.49866 55.161617,309.33905 54.501217,309.50713 C 53.840827,309.6752 52.024747,308.1625 52.024747,308.1625 L 49.548257,310.51559 L 46.906677,311.18792 L 43.934897,310.34751 L 42.614107,309.00289 L 40.375267,305.85952 L 37.165847,303.79248 L 34.524277,300.93514 L 31.552507,297.06935 L 30.892107,294.71625 L 28.250527,293.20355 L 27.425027,291.52277 L 27.177377,286.06022 L 29.406207,285.97618 L 31.387407,285.13579 L 31.552507,282.27847 L 33.203487,280.76576 L 33.368587,275.55534 L 34.359177,271.52146 L 35.679967,270.84915 L 37.000757,272.02569 L 37.496057,273.87455 L 39.312137,272.86608 L 39.807437,271.18531 L 38.651747,269.33645 L 38.651747,266.81527 L 39.642337,265.47065 L 41.953717,261.94101 L 43.274507,260.42831 L 45.420797,260.93254 L 47.732177,259.25175 L 50.869047,255.72212 L 53.180437,251.68823 L 53.510627,245.80551 L 54.005927,240.59508 L 54.005927,235.72081 L 52.850237,232.52733 L 53.840827,231.01462 L 55.151597,229.66999 L 58.717097,250.28419 L 63.446597,249.50322 L 76.149187,247.89206 z" />
  <path
     style="fill:#0000ff;fill-opacity:1;fill-rule:evenodd;stroke:none;stroke-width:1px;stroke-linecap:butt;stroke-linejoin:miter;stroke-opacity:1"
     d="M 119.52917,258.26443 L 120.46311,256.36285 L 122.75126,258.07428 L 121.67723,260.64141 L 119.99614,259.02507 L 119.52917,258.26443 z"
     id="path6656" />
  <g
     id="g8180"
     style="fill:#cccccc"
     transform="translate(-698.09547,-1.9982e-2)">
    <path
       d="M 738.7284,305.32516 L 740.70958,309.02287 L 742.03037,310.36749 L 745.00215,311.2079 L 747.64373,310.53557 L 750.12022,308.18248 C 750.12022,308.18248 751.9363,309.69518 752.59669,309.52711 C 753.25709,309.35903 757.05436,308.51864 757.05436,308.51864 L 758.87045,303.64438 L 761.51202,304.65285 L 764.814,302.13167 L 766.29989,302.46782 L 768.44617,300.45089 L 768.61127,297.59356 L 767.78577,296.24894 L 772.90384,284.9877 L 775.05012,278.09649 L 775.38031,273.55838 L 777.1964,273.3903 L 778.84739,276.24763 L 780.16818,277.08802 L 782.80976,277.08802 L 783.96545,271.37336 L 784.29564,268.17988 L 787.76272,267.84373 L 788.25802,265.49063 L 791.39489,262.96946 L 792.05529,261.28868 L 793.70628,258.43134 L 794.20157,256.24633 L 794.36667,250.69975 L 798.98943,252.5486 L 804.7679,255.7421 L 805.59338,250.44764 L 809.88595,252.5486 L 809.88595,255.57402 L 815.49931,256.91864 L 817.48049,258.26326 L 818.47108,256.24633 L 820.78247,257.92711 L 819.29657,261.28868 L 818.96637,264.146 L 817.15029,266.83525 L 817.15029,269.02027 L 817.81068,270.86913 L 822.98233,272.27864 L 824.90863,273.89525 L 830.19178,274.23141 L 832.83336,276.5845 L 836.13533,277.25681 L 837.45611,278.60143 L 836.96082,283.30762 L 837.95141,284.31608 L 838.11651,286.66917 L 839.43729,288.85419 L 839.2722,290.70305 L 835.97023,289.5265 L 835.97023,290.53497 L 837.95141,292.21575 L 837.95141,293.39229 L 839.43729,294.56884 L 840.75808,296.24962 L 840.92318,298.60271 L 838.6118,300.11541 L 838.942,300.61964 L 841.58358,300.11541 L 844.88554,299.4431 L 846.04123,299.27502 L 850.20356,306.58097 L 845.21707,308.35056 L 833.49506,311.37597 L 813.92151,315.35219 L 792.88078,319.27565 L 775.38031,321.96489 L 759.22415,323.98183 L 751.9363,325.32646 L 747.32856,324.68385 L 745.16725,324.65414 L 742.69078,326.67109 L 734.60093,326.83916 L 722.3505,328.8153 L 712.13922,329.78475 L 714.95419,328.35186 L 720.73264,324.82222 L 724.69501,322.6372 L 724.69501,320.45219 L 726.51109,318.60333 L 731.13386,313.05675 L 735.42643,309.35903 L 738.7284,305.32516 z"
       id="VA"
       style="fill:#cccccc" />
    <path
       sodipodi:nodetypes="cccccccccccc"
       id="path3106"
       d="M 845.69487,293.77543 L 844.35758,290.76684 L 844.75381,282.95122 L 847.26331,278.51396 L 847.13123,274.21116 L 853.07478,271.9253 L 852.41438,274.21116 L 849.24449,278.3795 L 848.92256,286.54808 L 848.17135,289.94326 L 846.33876,293.85948 L 845.69487,293.77543 z"
       style="fill:#cccccc;fill-opacity:1;fill-rule:evenodd;stroke:none;stroke-width:1px;stroke-linecap:butt;stroke-linejoin:miter;stroke-opacity:1" />
  </g>
  <path
     style="fill:#000000;fill-opacity:0;fill-rule:evenodd;stroke:#ffffff;stroke-width:1.33265233;stroke-linecap:butt;stroke-linejoin:miter;stroke-miterlimit:4;stroke-dasharray:none;stroke-opacity:1"
     d="M 118.82872,258.07427 C 119.62312,258.6872 120.04919,259.54704 121.67724,260.54633 L 121.67724,260.59387"
     id="path6654"
     sodipodi:nodetypes="ccc" />
  <path
     id="VA_NC"
     style="fill:#000000;fill-opacity:0;stroke:#ffffff;stroke-width:1.06612186pt;stroke-opacity:1"
     d="M 49.052957,324.63416 L 53.840827,325.30648 L 61.128677,323.96185 L 77.284837,321.94491 L 94.785307,319.25566 L 115.82604,315.3322 L 135.39959,311.35599 L 147.1216,308.33058 L 152.14295,306.6396" />
  <path
     id="WV_VA"
     style="fill:#000000;fill-opacity:0;stroke:#ffffff;stroke-width:1.06612186pt;stroke-opacity:1"
     d="M 40.234347,305.64133 L 42.614107,309.00289 L 43.934897,310.34751 L 46.906677,311.18791 L 49.548257,310.51559 L 52.024747,308.1625 C 52.024747,308.1625 53.840827,309.6752 54.501217,309.50712 C 55.161617,309.33905 58.958887,308.49866 58.958887,308.49866 L 60.774977,303.6244 L 63.416547,304.63286 L 66.718527,302.11168 L 68.204417,302.44784 L 70.350697,300.43091 L 70.515797,297.57358 L 69.690297,296.22896 L 74.808367,284.96771 L 76.954647,278.07651 L 77.284837,273.53839 L 79.100927,273.37032 L 80.751917,276.22765 L 82.072707,277.06804 L 84.714287,277.06804 L 85.869977,271.35338 L 86.200167,268.1599 L 89.667247,267.82375 L 90.162547,265.47064 L 93.299417,262.94947 L 93.959817,261.2687 L 95.610807,258.41136 L 96.106097,256.22635 L 96.271197,250.67976 L 100.89396,252.52862 L 106.67243,255.72211 L 107.66301,250.17553" />
  <path
     id="VA_MD"
     style="fill:#000000;fill-opacity:0;stroke:#ffffff;stroke-width:1.06612186pt;stroke-opacity:1"
     d="M 107.33281,250.67976 L 111.79048,252.52862 L 111.79048,255.55404 L 117.40384,256.89866 L 119.38502,258.24328 L 120.37561,256.22635 L 122.687,257.90713 L 121.2011,261.2687 L 120.8709,264.12602 L 119.05482,266.81527 L 119.05482,269.00029 L 119.71521,270.84915 L 125.27193,272.32282" />
  <path
     id="WV_MD"
     style="fill:#000000;fill-opacity:0;stroke:#ffffff;stroke-width:1.06612186pt;stroke-opacity:1"
     d="M 107.8281,250.84784 L 106.34222,249.16706 L 104.36104,247.31821 L 101.38926,245.80551 L 99.709947,244.6307 L 97.825467,245.13494 L 95.775907,246.64589 L 93.134317,248.83091 L 90.162547,249.16706 L 88.841757,248.49475 L 87.025677,251.184 L 85.539777,252.6967 L 83.063297,252.86478 L 80.751917,256.05827 L 78.605627,258.57944 L 78.275437,258.91559 L 77.284837,253.03287 L 75.798957,247.65436" />
  <path
     id="PA_WV"
     style="fill:#000000;fill-opacity:0;stroke:#ffffff;stroke-width:1.06612186pt;stroke-opacity:1"
     d="M 76.149187,247.89206 L 63.446597,249.50322 L 58.717097,250.28419 L 54.976487,229.66999" />
  <path
     id="OH_WV"
     style="fill:#000000;fill-opacity:0;stroke:#ffffff;stroke-width:1.06612186pt;stroke-opacity:1"
     d="M 55.326717,229.66999 L 53.840827,231.01462 L 52.850237,232.52733 L 54.005927,235.72081 L 54.005927,240.59508 L 53.510627,245.80551 L 53.180437,251.68823 L 50.869047,255.72211 L 47.732177,259.25175 L 45.420797,260.93254 L 43.274507,260.42831 L 41.953717,261.94101 L 39.642337,265.47064 L 38.651747,266.81527 L 38.651747,269.33645 L 39.807437,271.1853 L 39.312137,272.86608 L 37.496057,273.87455 L 37.000757,272.02569 L 35.679967,270.84915 L 34.359177,271.52146 L 33.368587,275.55534 L 33.203487,280.76576 L 31.552507,282.27847 L 31.387407,285.13579 L 29.406207,285.97618 L 27.094837,286.31234" />
  <path
     id="OH_PA"
     style="fill:#000000;fill-opacity:0;stroke:#ffffff;stroke-width:1.06612186pt;stroke-opacity:1"
     d="M 50.374347,198.95031 L 53.346127,219.08067 L 55.162217,230.84615" />
  <path
     id="NY_PA"
     style="fill:#000000;fill-opacity:0;stroke:#ffffff;stroke-width:1.06612186pt;stroke-opacity:1"
     d="M 61.415937,189.7264 L 62.096367,197.06241 L 71.176797,195.54971 L 115.09309,186.47348 L 134.07946,182.27152 L 136.45924,184.49734 L 139.52772,185.46501 L 142.00421,191.0116 L 144.31558,193.02853 L 146.95717,193.19661 L 148.27796,194.37317" />
  <path
     id="NY_NJ"
     style="fill:#000000;fill-opacity:0;stroke:#ffffff;stroke-width:1.06612186pt;stroke-opacity:1"
     d="M 148.11286,194.20508 L 151.91013,196.05395 L 155.87251,197.23049 L 160.49528,198.23896 L 163.13685,199.41551 L 163.30195,201.60053 L 162.80665,204.45786 L 163.42871,208.23539" />
  <path
     id="PA_NJ"
     style="fill:#000000;fill-opacity:0;stroke:#ffffff;stroke-width:1.06612186pt;stroke-opacity:1"
     d="M 148.44306,194.037 L 145.96658,196.72626 L 145.96658,199.91975 L 143.98539,203.11323 L 143.82029,204.79402 L 145.14109,206.13864 L 144.97599,208.65982 L 142.6646,209.83637 L 143.49009,212.69369 L 143.65519,213.87025 L 146.46187,214.2064 L 147.45247,216.89565 L 151.08464,219.41683 L 153.56112,221.09761 L 153.56112,221.938 L 150.25915,225.13149 L 148.60815,227.48458 L 147.12227,230.34192 L 144.81089,231.68654 L 143.65519,232.52693" />
  <path
     id="DE_NJ"
     style="fill:#000000;fill-opacity:0;stroke:#ffffff;stroke-width:1.06612186pt;stroke-opacity:1"
     d="M 143.49009,232.35885 L 143.32499,233.70349 L 142.743,236.43352" />
  <path
     id="NY_DE"
     style="fill:#000000;fill-opacity:0;stroke:#ffffff;stroke-width:1.06612186pt;stroke-opacity:1"
     d="M 143.65519,232.35885 L 141.50891,232.35885 L 139.36262,234.03964 L 137.87673,235.55234" />
  <path
     id="MD_DE"
     style="fill:#000000;fill-opacity:0;stroke:#ffffff;stroke-width:1.06612186pt;stroke-opacity:1"
     d="M 137.87673,235.55234 L 139.36262,239.92238 L 141.67401,245.80512 L 143.82029,255.88981 L 145.47128,262.44488 L 150.58935,262.2768 L 156.8631,261.10024" />
  <path
     id="PA_MD"
     style="fill:#000000;fill-opacity:0;stroke:#ffffff;stroke-width:1.06612186pt;stroke-opacity:1"
     d="M 138.21695,235.14657 L 129.56997,237.03622 L 114.37739,239.97161 L 75.139177,247.99014" />
  <path
     id="NY_CT"
     style="fill:#000000;fill-opacity:0;stroke:#ffffff;stroke-width:1.06612186pt;stroke-opacity:1"
     d="M 167.45947,198.33742 L 165.44824,196.05395 L 166.60393,193.70084 L 166.60393,185.29694 L 165.11804,177.73341 L 164.29255,174.03568" />
  <path
     id="NY_MA"
     style="fill:#000000;fill-opacity:0;stroke:#ffffff;stroke-width:1.06612186pt;stroke-opacity:1"
     d="M 164.29255,174.03568 L 163.46706,168.32102 L 163.96235,157.05978" />
  <path
     id="NY_VT"
     style="fill:#000000;fill-opacity:0;stroke:#ffffff;stroke-width:1.06612186pt;stroke-opacity:1"
     d="M 163.96235,157.05978 L 163.46706,151.68128 L 160.33018,140.25195 L 159.66978,139.91579 L 156.698,138.57117 L 157.52349,135.54575 L 156.698,133.36074 L 154.05643,128.65455 L 155.04702,124.62067 L 154.22152,119.24216 L 151.74504,112.51902 L 151.08464,107.3086" />
  <path
     id="VT_NH"
     style="fill:#000000;fill-opacity:0;stroke:#ffffff;stroke-width:1.06612186pt;stroke-opacity:1"
     d="M 178.65615,99.745079 L 178.98635,105.96398 L 180.96753,108.82131 L 180.96753,113.02327 L 177.17025,117.22522 L 174.52868,118.40177 L 174.52868,119.57832 L 175.68437,121.42718 L 175.68437,130.33533 L 174.85887,139.91579 L 174.69378,144.95814 L 175.68437,146.30277 L 175.51927,151.00895 L 175.02397,152.85782 L 176.67496,154.87476" />
  <path
     id="VT_MA"
     style="fill:#000000;fill-opacity:0;stroke:#ffffff;stroke-width:1.06612186pt;stroke-opacity:1"
     d="M 164.29255,157.56402 L 169.41061,156.38747 L 176.34476,155.04284" />
  <path
     id="NH_MA"
     style="fill:#000000;fill-opacity:0;stroke:#ffffff;stroke-width:1.06612186pt;stroke-opacity:1"
     d="M 176.34476,155.04284 L 194.17544,150.6728 L 196.48683,150.00049 L 198.63311,146.63893 L 202.80065,144.6916" />
  <path
     id="NH_ME"
     style="fill:#000000;fill-opacity:0;stroke:#ffffff;stroke-width:1.06612186pt;stroke-opacity:1"
     d="M 203.82957,140.13309 L 201.27469,138.90732 L 200.77939,135.71383 L 196.81702,134.53729 L 196.48683,131.67995 L 189.05737,107.3086 L 184.10441,91.845395" />
  <path
     id="MA_CT"
     style="fill:#000000;fill-opacity:0;stroke:#ffffff;stroke-width:1.06612186pt;stroke-opacity:1"
     d="M 164.62275,174.53992 L 186.74599,169.32949 L 192.02916,168.15295" />
  <path
     id="CT_RI"
     style="fill:#000000;fill-opacity:0;stroke:#ffffff;stroke-width:1.06612186pt;stroke-opacity:1"
     d="M 192.02916,168.15295 L 193.68014,174.37184 L 194.50563,178.90995 L 195.16603,183.27999" />
  <path
     id="RI_MA"
     style="fill:#000000;fill-opacity:0;stroke:#ffffff;stroke-width:1.06612186pt;stroke-opacity:1"
     d="M 191.86406,168.32102 L 197.80761,166.64024 L 199.4586,167.81679 L 202.92568,172.3549 L 205.89746,177.0611" />
  <g
     id="g3547"
     style="fill:#000000;fill-opacity:0;stroke:#ffffff;stroke-opacity:1"
     transform="translate(-698.09547,-1.9982e-2)">
    <path
       d="M 876.74955,100.10268 L 848.85548,107.51359"
       style="fill:#000000;fill-opacity:0;stroke:#ffffff;stroke-width:2.66530466;stroke-dasharray:none;stroke-opacity:1"
       id="VT_Canada" />
    <path
       d="M 943.28423,76.73985 L 940.47756,76.907928 L 940.97285,78.084474 L 940.80775,78.588708 L 939.98226,78.588708 L 937.01049,76.235617 L 936.84539,71.193279 L 936.0199,69.176344 L 929.91126,69.176344 L 920.66574,38.081928 L 918.68456,37.073461 L 912.57592,34.552292 L 911.09003,34.384214 L 909.27395,36.233071 L 905.14649,39.258474 L 905.14649,40.266941 L 904.32099,41.107331 L 901.51432,40.435019 L 900.19353,38.081928 L 900.19353,36.905383 L 898.87274,36.737305 L 897.55196,36.737305 L 895.40568,41.107331 L 892.4339,50.351617 L 890.61782,55.393954 L 890.78292,60.436292 L 890.94802,61.948993 L 890.12252,64.806318 L 889.29703,65.814786 L 889.29703,72.033669 L 891.27821,74.554837 L 889.79233,78.756786 L 887.15075,83.631045 L 886.32526,89.345695 L 886.32526,92.034941 L 884.77927,91.608771 L 881.71077,91.733617"
       style="fill:#000000;fill-opacity:0;stroke:#ffffff;stroke-width:2.66530466;stroke-dasharray:none;stroke-opacity:1"
       id="ME_Canada" />
    <path
       d="M 882.59051,91.36264 L 881.5374,92.203019 L 880.87701,93.883799 L 880.21662,93.379565 L 879.22603,92.371097 L 877.74014,94.388032 L 875.84148,100.77501"
       style="fill:#000000;fill-opacity:0;stroke:#ffffff;stroke-width:2.66530466;stroke-dasharray:none;stroke-opacity:1"
       id="NH_Canada" />
    <g
       id="g3537"
       style="fill:#000000;fill-opacity:0;stroke:#ffffff;stroke-opacity:1">
      <path
         id="MI_Canada"
         style="fill:#000000;fill-opacity:0;stroke:#ffffff;stroke-width:2.66530466;stroke-dasharray:none;stroke-opacity:1"
         d="M 710.49539,188.67975 L 711.48598,189.52014 L 710.49539,190.69668 L 710.66049,191.36899 L 711.48598,191.53707 L 713.46716,190.5286 L 713.13697,180.61201 M 704.88204,204.47907 L 704.88204,198.9325 L 706.86322,196.91556 L 707.68872,196.57941" />
      <path
         id="NY_Canada"
         style="fill:#000000;fill-opacity:0;stroke:#ffffff;stroke-width:2.66530466;stroke-opacity:1"
         d="M 766.79397,165.82115 L 768.77515,172.20811 L 770.59123,172.37619 L 771.91202,175.56967 M 849.4392,107.39474 L 841.58358,109.51505 L 836.96082,111.02775 L 833.65885,110.85967 L 828.0455,112.20429 L 824.7235,113.61855" />
      <g
         id="g3530"
         style="fill:#000000;fill-opacity:0;stroke:#ffffff;stroke-opacity:1">
        <path
           d="M 179.70368,24.971818 L 163.02887,21.106058 L 139.58489,15.223331 L 119.11268,9.3406038 L 110.36246,7.3236687 L 100.45655,4.4663441 L 95.99889,2.9536428"
           style="fill:#000000;fill-opacity:0;stroke:#ffffff;stroke-width:2.66530466;stroke-dasharray:none;stroke-opacity:1"
           id="WA_Canada" />
        <path
           d="M 193.57209,27.997253 L 179.20868,25.139971"
           style="fill:#000000;fill-opacity:0;stroke:#ffffff;stroke-width:2.66530466;stroke-dasharray:none;stroke-opacity:1"
           id="ID_Canada" />
        <path
           d="M 371.21804,55.393954 L 338.69364,52.032396 L 308.81082,48.334682 L 278.92799,44.132734 L 245.9083,38.586162 L 227.08707,35.056526 L 193.57209,27.997253"
           style="fill:#000000;fill-opacity:0;stroke:#ffffff;stroke-width:2.66530466;stroke-dasharray:none;stroke-opacity:1"
           id="MT_Canada" />
        <path
           d="M 472.75352,59.76398 L 442.87077,59.427825 L 423.88445,58.755513 L 396.8083,57.410889 L 371.21804,55.393954"
           style="fill:#000000;fill-opacity:0;stroke:#ffffff;stroke-width:2.66530466;stroke-dasharray:none;stroke-opacity:1"
           id="ND_Canada" />
        <path
           d="M 590.4688,78.756786 L 585.35075,79.261019 L 584.85546,80.269487 L 584.19506,80.269487 L 582.37898,77.076006 L 573.29856,77.412162 L 572.30797,78.252552 L 571.31738,78.252552 L 570.82209,76.907928 L 569.99659,75.059071 L 567.35502,75.563305 L 564.05305,78.924863 L 562.40206,79.765253 L 559.26519,79.765253 L 556.62362,78.756786 L 556.62362,76.571773 L 555.30283,76.403695 L 554.80753,76.907928 L 552.16596,75.563305 L 551.67066,72.537902 L 550.18478,73.042136 L 549.68948,74.050604 L 547.21301,73.54637 L 541.76476,71.025201 L 537.80239,68.335954 L 534.83062,68.335954 L 533.50983,67.327487 L 531.19845,67.999799 L 530.04276,69.176344 L 529.71257,70.520967 L 524.75961,70.520967 L 524.75961,68.335954 L 518.32077,67.999799 L 517.99058,66.487097 L 513.03762,66.487097 L 511.38664,64.806318 L 509.90075,58.419357 L 509.07526,52.704708 L 507.09408,51.864318 L 504.7827,51.360084 L 504.1223,51.528162 L 503.79211,60.100136 L 472.09313,60.100136"
           style="fill:#000000;fill-opacity:0;stroke:#ffffff;stroke-width:2.66530466;stroke-dasharray:none;stroke-opacity:1"
           id="MN_Canada" />
      </g>
    </g>
  </g>
  <path
     style="fill:#000000;fill-opacity:0;fill-rule:evenodd;stroke:#ffffff;stroke-width:1.33265233;stroke-linecap:butt;stroke-linejoin:miter;stroke-miterlimit:4;stroke-dasharray:none;stroke-opacity:1"
     d="M 148.42538,274.70596 L 149.71267,273.67014 L 152.19812,272.75825 L 154.04493,272.08066 L 154.7977,271.80448 L 155.31137,271.85201"
     id="path3995"
     sodipodi:nodetypes="cccccc" />
  <path
     style="fill:#000000;fill-opacity:0;fill-rule:evenodd;stroke:#ffffff;stroke-width:0.41898587;stroke-linecap:butt;stroke-linejoin:miter;stroke-miterlimit:4;stroke-dasharray:none;stroke-opacity:1"
     d="M 119.1556,257.88411 C 120.13623,258.83491 120.69659,259.59554 120.69659,259.59554 L 121.30366,260.83158 L 121.44375,260.68896"
     id="path5767"
     sodipodi:nodetypes="cccc" />
</svg>
